<svg width="24" height="24" version="1.1" xmlns="http://www.w3.org/2000/svg">
<defs>
<style id="current-color-scheme" type="text/css">.ColorScheme-Text { color:#dfdfdf; } .ColorScheme-Highlight { color:#4285f4; }</style>
</defs>
<g transform="translate(4,4)" fill="#dfdfdf">
<path d="m8-4e-5c-0.9665 0-1.7725 0.68629-1.959 1.5977-0.0267 0.13019-0.041 0.26427-0.041 0.40234h-1c-7e-3 0-0.0128 2e-3 -0.0195 2e-3 -1.0954 0.0107-1.9805 0.90013-1.9805 1.998v9c0 1.1046 0.89543 2 2 2h6a2 2 0 0 0 0.19922-0.01 2 2 0 0 0 1.8008-1.99v-9c0-1.0979-0.88515-1.9873-1.9805-1.998-7e-3 -6e-5 -0.0128-2e-3 -0.0195-2e-3l-1 2e-3v-0.00195c0-1.1046-0.89543-2-2-2z" opacity=".3"/>
<path d="m4.9609 6.002c-1.0861 0.0214-1.9609 0.90493-1.9609 1.9961v5.002c0 1.1046 0.89543 2 2 2h6a2 2 0 0 0 2-2v-5.002c0-1.0912-0.87488-1.9747-1.9609-1.9961z"/>
</g>
</svg>
