<svg width="24" height="24" version="1.1" xmlns="http://www.w3.org/2000/svg">
<defs>
<style id="current-color-scheme" type="text/css">.ColorScheme-Text { color:#dfdfdf; } .ColorScheme-Highlight { color:#4285f4; }</style>
</defs>
<path d="m12 3.998a2 2 0 0 0-2 2 2 2 0 0 0 0 2e-3h-1.0195c-1.0953 0.0107-1.9805 0.90013-1.9805 1.998v9c0 1.1046 0.89543 2 2 2h6c1.1046 0 2-0.89543 2-2v-9c0-1.0979-0.88515-1.9873-1.9805-1.998h-1.0195a2 2 0 0 0 0-2e-3 2 2 0 0 0-2-2zm0 5.002c1.1046 0 2 0.89543 2 2 0 1.1046-0.89543 2-2 2v1h-1v-2h1c0.55229 0 1-0.44772 1-1 0-0.55228-0.44771-1-1-1-0.55228 0-1 0.44772-1 1h-1c0-1.1046 0.89543-2 2-2zm-1 6h1v1h-1z" fill="#dfdfdf" opacity=".3"/>
</svg>
