<svg width="24" height="24" version="1.1" xmlns="http://www.w3.org/2000/svg">
<defs>
<style id="current-color-scheme" type="text/css">.ColorScheme-Text { color:#dfdfdf; } .ColorScheme-Highlight { color:#4285f4; }</style>
</defs>
<path d="m12 3.996c-0.13807 0-0.27215 0.0144-0.40234 0.041-0.1302 0.0266-0.25732 0.0666-0.37696 0.11718-0.11206 0.0474-0.21784 0.10574-0.31836 0.17188a2 2 0 0 0-0.0293 0.0195c-4.2e-4 2.8e-4 -2e-3 -2.9e-4 -2e-3 0-0.0975 0.0667-0.18746 0.14209-0.27148 0.22461-6e-3 6e-3 -0.0134 0.0114-0.0195 0.0176-0.0853 0.0859-0.16186 0.18104-0.23047 0.28125-4e-3 5e-3 -8e-3 0.0102-0.0117 0.0156-0.0628 0.0937-0.11563 0.19488-0.16211 0.29883a2 2 0 0 0-0.0273 0.0625c-0.0423 0.10417-0.0752 0.21216-0.0996 0.32422a2 2 0 0 0-0.01 0.041c-0.0242 0.12495-0.0389 0.2528-0.0389 0.38483a2 2 0 0 0 0 2e-3h-1.0195c-1.0953 0.0107-1.9805 0.90013-1.9805 1.998v9c0 1.1046 0.89543 2 2 2h6a2 2 0 0 0 2-2v-9c0-1.0979-0.88515-1.9873-1.9805-1.998h-0.51953l-0.5 2e-3v-4e-3c0-0.13807-0.0144-0.27215-0.041-0.40234-0.0251-0.12281-0.0628-0.24004-0.10937-0.35352a2 2 0 0 0-6e-3 -0.0215c-3.5e-4 -8.2e-4 -2e-3 -1e-3 -2e-3 -2e-3a2 2 0 0 0-6e-3 -0.0137c-0.0481-0.11104-0.10723-0.21689-0.17383-0.31641a2 2 0 0 0-6e-3 -0.01c-0.0684-0.1009-0.14725-0.19465-0.23242-0.28125a2 2 0 0 0-0.0156-0.0195c-0.0823-0.0816-0.17215-0.15428-0.26758-0.2207a2 2 0 0 0-0.0352-0.0254c-0.0942-0.0625-0.19437-0.116-0.29883-0.1621a2 2 0 0 0-0.0469-0.0195c-0.10709-0.044-0.22048-0.0785-0.33594-0.10351a2 2 0 0 0-0.0391-0.01c-0.12435-0.0239-0.2522-0.0386-0.38423-0.0386zm0 5.002v3h3l-3 5v-3h-3z" fill="#dfdfdf"/>
</svg>
