<svg width="24" height="24" version="1.1" xmlns="http://www.w3.org/2000/svg">
<defs>
<style id="current-color-scheme" type="text/css">.ColorScheme-Text { color:#dfdfdf; } .ColorScheme-Highlight { color:#4285f4; }</style>
</defs>
<g transform="translate(4.0017,4)" fill="#dfdfdf">
<path d="m 11,11 v 1 c 0,0.27614 0.10029,0.53779 0.28125,0.71875 L 12.0625,13.5 11.28125,14.28125 C 11.10029,14.46221 11,14.72386 11,15 v 1 h 1 c 0.27614,0 0.53779,-0.10029 0.71875,-0.28125 L 13.5,14.9375 14.28125,15.71875 C 14.46221,15.89971 14.72386,16 15,16 h 1 v -1 c 0,-0.27614 -0.10029,-0.53779 -0.28125,-0.71875 L 14.9375,13.5 15.71875,12.71875 C 15.89971,12.53779 16,12.27614 16,12 v -1 h -1 c -0.27614,0 -0.53779,0.10029 -0.71875,0.28125 L 13.5,12.0625 12.71875,11.28125 C 12.53779,11.10029 12.27614,11 12,11 Z" enable-background="new"/>
<path d="m5.9983 4.997 4.5 5.5 4.5-5.5c-3e-3 4e-3 -1.3333 0-2 0v-3h-5v3z" color="#000000" enable-background="new" opacity=".3"/>
<path d="m9.9983 11.997-4.5-5.5-4.5 5.5c3e-3 -4e-3 1.3333 0 2 0v3h5v-3z" color="#000000" enable-background="new" opacity=".3"/>
</g>
</svg>
