<svg width="24" height="24" version="1.1" xmlns="http://www.w3.org/2000/svg">
<defs>
<style id="current-color-scheme" type="text/css">.ColorScheme-Text { color:#dfdfdf; } .ColorScheme-Highlight { color:#4285f4; }</style>
</defs>
<g transform="translate(4.0002 4)" fill="#dfdfdf">
<path d="m7.9999 0.99851c-0.72385 0-1.447 0.069-2.1602 0.20703-6.4e-4 1.199e-4 -1e-3 -1.2e-4 -2e-3 0-8e-3 2e-3 -0.0155 4e-3 -0.0234 6e-3 -0.43209 0.0849-0.85757 0.20418-1.2793 0.33984-0.0503 0.0161-0.1003 0.0339-0.15039 0.0508-0.25222 0.0843-0.50283 0.17441-0.75 0.27539-0.64222 0.26826-1.2657 0.59255-1.8594 0.98437h-2e-3c-0.62734 0.41404-1.2212 0.89726-1.7734 1.4492l6.5508 7.9316h2e-3c0.37724 0.39311 0.89852 0.61531 1.4434 0.61523 0.54638-9.2e-4 1.0686-0.22533 1.4453-0.62109h4e-3l0.55469-0.66992v-1.5703h1.2988l4.7012-5.6856c-0.25239-0.25223-0.51588-0.48555-0.78516-0.70898-0.0665-0.0553-0.13564-0.10666-0.20312-0.16016-0.21478-0.17008-0.43444-0.3321-0.65821-0.48438-0.0725-0.0493-0.14346-0.10095-0.21679-0.14843-0.60139-0.38903-1.2292-0.71901-1.8789-0.98243-0.65024-0.26361-1.3219-0.45987-2.002-0.59765-0.0829-0.0168-0.1668-0.03-0.25-0.0449-0.25945-0.0465-0.5197-0.085-0.78125-0.11329-0.077-8e-3 -0.1534-0.0167-0.23047-0.0234-0.33091-0.029-0.6622-0.0488-0.99414-0.0488z" opacity=".3"/>
<path d="m11 11v1c0 0.27614 0.10029 0.53779 0.28125 0.71875l0.78125 0.78125-0.78125 0.78125c-0.18096 0.18096-0.28125 0.44261-0.28125 0.71875v1h1c0.27614 0 0.53779-0.10029 0.71875-0.28125l0.78125-0.78125 0.78125 0.78125c0.18096 0.18096 0.44261 0.28125 0.71875 0.28125h1v-1c0-0.27614-0.10029-0.53779-0.28125-0.71875l-0.78125-0.78125 0.78125-0.78125c0.18096-0.18096 0.28125-0.44261 0.28125-0.71875v-1h-1c-0.27614 0-0.53779 0.10029-0.71875 0.28125l-0.78125 0.78125-0.78125-0.78125c-0.18096-0.18096-0.44261-0.28125-0.71875-0.28125z" enable-background="new"/>
</g>
</svg>
