<svg width="24" height="24" version="1.1" xmlns="http://www.w3.org/2000/svg">
<defs>
<style id="current-color-scheme" type="text/css">.ColorScheme-Text { color:#dfdfdf; } .ColorScheme-Highlight { color:#4285f4; }</style>
</defs>
<path d="m12 4.5c-3.4 0-6.22 2.35-7 5.5h1.5c0.74-2.32 2.93-4 5.5-4s4.76 1.68 5.5 4h1.5c-0.78-3.15-3.6-5.5-7-5.5zm0 3.709c-1.3 0-2.42 0.72101-3 1.791h6c-0.58-1.06-1.7-1.791-3-1.791zm-7 3.791 5.709 5.709c0.36097 0.30516 0.81835 0.47261 1.291 0.47265 0.47133-9.7e-4 0.92717-0.16836 1.2871-0.47265h4e-3l5.7089-5.709z" fill="#444"/>
</svg>
