<svg width="24" height="24" version="1.1" xmlns="http://www.w3.org/2000/svg">
<defs>
<style id="current-color-scheme" type="text/css">.ColorScheme-Text { color:#dfdfdf; } .ColorScheme-Highlight { color:#4285f4; }</style>
</defs>
<g fill="#444">
<path d="m12 5.9984c-2.8954 0-5.7909 1.1047-8 3.3125l6.5469 7.9316h0.0059c0.37724 0.39311 0.89848 0.61531 1.4434 0.61523 0.35789-6.02e-4 0.70085-0.10548 1.0039-0.2832v-2.5664h1.0508v-0.68359c0-0.90787 1.2078-2.3164 2.9492-2.3164 0.24245 0 0.47236 0.0374 0.69531 0.08984l2.3047-2.7871c-2.2091-2.2078-5.1046-3.3125-8-3.3125z" opacity=".3"/>
<path d="m12 12.998c-1.3365 0-2.6737 0.50826-3.6934 1.5273l2.2441 2.7168h0.0019c0.37724 0.39311 0.8984 0.61531 1.4434 0.61523 0.1696-2.85e-4 0.33586-0.02652 0.49609-0.07031 6.02e-4 -1.56e-4 0.0014 1.56e-4 2e-3 0 0.02118-0.0055 0.04153-0.01334 0.0625-0.01953 2e-3 -6.1e-4 0.0039-0.0013 0.0059-2e-3 0.15233-0.04768 0.2994-0.11042 0.4375-0.19141v-2.5664h1.0508v-0.68359c-1.2e-5 -0.24033 0.09128-0.51398 0.24805-0.78906-0.72349-0.35483-1.5098-0.53711-2.2988-0.53711z"/>
<path class="ColorScheme-Text" d="m17 13c-1.108 0-2 0.911-2 2.031v0.969h-1v4h6v-4h-1v-0.969c0-1.12-0.892-2.031-2-2.031zm0 1c0.554 0 1 0.442 1 1v1h-2v-1c0-0.558 0.446-1 1-1z" color="#dfdfdf"/>
</g>
</svg>
