<svg width="22" height="22" version="1.1" xmlns="http://www.w3.org/2000/svg">
<defs>
<style id="current-color-scheme" type="text/css">.ColorScheme-Text { color:#dfdfdf; } .ColorScheme-Highlight { color:#4285f4; }</style>
</defs>
<g transform="translate(3,3)" fill="#dfdfdf">
<path d="m8.0001-2e-3c-0.13807 0-0.27215 0.0144-0.40234 0.041-0.11877 0.0243-0.23368 0.0611-0.34375 0.10546-0.021 8e-3 -0.0418 0.0166-0.0625 0.0254-0.10013 0.0443-0.19643 0.0968-0.28711 0.15624-0.0105 7e-3 -0.0209 0.0142-0.0312 0.0215-4.2e-4 2.8e-4 -2e-3 -2.9e-4 -2e-3 0-0.0975 0.0667-0.18746 0.14209-0.27148 0.22461-6e-3 6e-3 -0.0134 0.0113-0.0195 0.0176-0.0816 0.0823-0.15428 0.17215-0.2207 0.26758-9e-3 0.0123-0.0171 0.0246-0.0254 0.0371-0.0588 0.0887-0.11002 0.1834-0.15429 0.28125-0.0116 0.0252-0.0227 0.0506-0.0332 0.0762-0.0413 0.10251-0.0737 0.2102-0.0976 0.32031-3e-3 0.0136-7e-3 0.0273-0.01 0.041-0.0243 0.12487-0.0389 0.25272-0.0389 0.38475v2e-3h-1.0195c-1.0953 0.0107-1.9805 0.90013-1.9805 1.998v9.998l10 2e-3v-10c-0.10924-1.0924-0.88515-1.9873-1.9805-1.998h-1.0196v-0.00195c0-0.13807-0.0144-0.27215-0.041-0.40234-0.0243-0.11877-0.0611-0.23368-0.10546-0.34375-8e-3 -0.021-0.0166-0.0418-0.0254-0.0625-0.0443-0.10013-0.0968-0.19643-0.15624-0.28711-7e-3 -0.0105-0.0142-0.0209-0.0215-0.0312-2.8e-4 -4.2e-4 2.9e-4 -2e-3 0-2e-3 -0.0667-0.0975-0.14209-0.18746-0.22461-0.27148-6e-3 -7e-3 -0.0117-0.0131-0.0176-0.0195-0.0823-0.0816-0.17215-0.15428-0.26758-0.2207-0.0123-9e-3 -0.0246-0.0171-0.0371-0.0254-0.0887-0.0588-0.1834-0.11002-0.28125-0.15429-0.0252-0.0116-0.0506-0.0227-0.0762-0.0332-0.10251-0.0413-0.2102-0.0737-0.32031-0.0976-0.0136-3e-3 -0.0273-7e-3 -0.041-0.01-0.12487-0.0243-0.25272-0.0389-0.38475-0.0389z" opacity=".3"/>
<path d="m4.0002 12.996c-0.554 0-1 0.446-1 1v4e-3c0 0.277 0.11222 0.52628 0.29297 0.70703s0.43003 0.29297 0.70703 0.29297h8c0.277 0 0.52628-0.11222 0.70703-0.29297 0.18075-0.18085 0.29297-0.43013 0.29297-0.70713v-4e-3c0-0.554-0.446-1-1-1h-3.998l-2e-3 4e-3v-4e-3z"/>
</g>
</svg>
