<svg width="22" height="22" version="1.1" xmlns="http://www.w3.org/2000/svg">
<defs>
<style id="current-color-scheme" type="text/css">.ColorScheme-Text { color:#dfdfdf; } .ColorScheme-Highlight { color:#4285f4; }</style>
</defs>
<path class="ColorScheme-Text" d="m18 4-14 14h8v-4.004h1.0137c0.0196-1.6349 1.3425-3 2.9863-3 0.77441 0 1.4708 0.30948 2 0.80078v-7.7969z" color="#dfdfdf" fill="currentColor" opacity=".3"/>
<path class="ColorScheme-Text" d="m16 12c-1.108 0-2 0.91085-2 2.0312v0.96875h-1v4h6v-4h-1v-0.96875c0-1.1199-0.892-2.0312-2-2.0312zm0 1c0.554 0 1 0.4424 1 1v1h-2v-1c0-0.5576 0.446-1 1-1z" color="#dfdfdf" fill="currentColor"/>
<path d="m8.9902 13-4.9902 5h2.9902c1.1046 0 2-0.89543 2-2z" fill="#dfdfdf"/>
</svg>
