<svg width="22" height="22" version="1.1" xmlns="http://www.w3.org/2000/svg">
<defs>
<style id="current-color-scheme" type="text/css">.ColorScheme-Text { color:#dfdfdf; } .ColorScheme-Highlight { color:#4285f4; }</style>
</defs>
<g transform="translate(3,3)" fill="#dfdfdf">
<path d="m11.003 11v1c0 0.27614 0.10029 0.53779 0.28125 0.71875l0.78125 0.78125-0.78125 0.78125c-0.18096 0.18096-0.28125 0.44261-0.28125 0.71875v1h1c0.27614 0 0.53779-0.10029 0.71875-0.28125l0.78125-0.78125 0.78125 0.78125c0.18096 0.18096 0.44261 0.28125 0.71875 0.28125h1v-1c0-0.27614-0.10029-0.53779-0.28125-0.71875l-0.78125-0.78125 0.78125-0.78125c0.18096-0.18096 0.28125-0.44261 0.28125-0.71875v-1h-1c-0.27614 0-0.53779 0.10029-0.71875 0.28125l-0.78125 0.78125-0.78125-0.78125c-0.18096-0.18096-0.44261-0.28125-0.71875-0.28125z" enable-background="new"/>
<path d="m2 1.9984s-1 1e-5 -1 1v9c0 0.99999 1 1 1 1h2l1 1h5v-2h-4l-1-1h-2v-7h1v3h2v-3h1v3h2v-3h1v3h2v-3h1v6h2v-7c0-0.99999-1-1-1-1z" enable-background="new" opacity=".3"/>
</g>
</svg>
