<svg width="22" height="22" version="1.1" xmlns="http://www.w3.org/2000/svg">
<defs>
<style id="current-color-scheme" type="text/css">.ColorScheme-Text { color:#dfdfdf; } .ColorScheme-Highlight { color:#4285f4; }</style>
</defs>
<g transform="translate(3,3)" fill="#dfdfdf">
<path class="ColorScheme-Text" d="m13 9c-1.108 0-2 0.911-2 2.031v0.969h-1v4h6v-4h-1v-0.969c0-1.12-0.892-2.031-2-2.031zm0 1c0.554 0 1 0.442 1 1v1h-2v-1c0-0.558 0.446-1 1-1z" color="#dfdfdf"/>
<path d="m8 1.9984c-2.8954 0-5.7909 1.1047-8 3.3125l6.5469 7.9316h0.0059c0.37724 0.39311 0.89848 0.61531 1.4434 0.61523 0.35789-6.02e-4 0.70085-0.10548 1.0039-0.2832v-2.5664h1.0508v-0.68359c0-0.90787 1.2078-2.3164 2.9492-2.3164 0.24245 0 0.47236 0.0374 0.69531 0.08984l2.3047-2.7871c-2.2091-2.2078-5.1046-3.3125-8-3.3125z" opacity=".3"/>
<path d="m8 4.998c-2.2274 0-4.4548 0.8484-6.1543 2.5469l4.7051 5.6973h2e-3c0.37724 0.39311 0.89844 0.61531 1.4434 0.61523 0.17025-2.85e-4 0.33724-0.02621 0.49805-0.07031 0.02118-0.0055 0.04153-0.01334 0.0625-0.01953 0.15443-0.0479 0.30348-0.11133 0.44336-0.19336v-2.5664h1.0508v-0.68359c-4.7e-5 -0.90787 1.2078-2.3164 2.9492-2.3164 0.24178 0 0.47099 0.03763 0.69336 0.08984 6.16e-4 1.44e-4 0.0013-1.45e-4 2e-3 0l0.45698-0.55468c-1.6992-1.6972-3.9258-2.5449-6.1523-2.5449z"/>
</g>
</svg>
