<svg width="16" height="16" version="1.1" xmlns="http://www.w3.org/2000/svg">
<path d="m0.78516 0s-0.78516 3.0055e-4 -0.78516 0.76953v8.4609s-5.5815e-4 0.76953 0.78516 0.76953h3.2148v-3.2305c0-0.72509 0.52025-1.3604 0.95312-1.5723 0.43288-0.2119 0.83203-0.19727 0.83203-0.19727h4.2715l0.94336 0.73242v-3.9258c1e-6 -0.76923-0.78516-0.80664-0.78516-0.80664h-4.2148l-1.2852-1h-3.9297zm5 6s-0.78516 3.006e-4 -0.78516 0.76953v8.4609s-5.581e-4 0.76953 0.78516 0.76953h9.4297s0.78516-3.01e-4 0.78516-0.76953v-7.4219c1e-6 -0.76923-0.78516-0.80859-0.78516-0.80859h-4.2148l-1.2852-1h-3.9297z" fill="#4c5263"/>
</svg>
