<svg width="16" height="16" version="1" xmlns="http://www.w3.org/2000/svg">
<path d="m8 0c-3.1004 0-3.8209 2.4508-3.9629 5.4961-1.2478 1.0979-2.0371 2.7036-2.0371 4.5039 0 3.324 2.676 6 6 6s6-2.676 6-6c0-1.8003-0.78933-3.406-2.0371-4.5039-0.14212-3.0454-0.86257-5.4961-3.9629-5.4961zm0 2c1.0526 0 1.6266 0.64976 1.8652 2.2969-0.58721-0.19088-1.2128-0.29688-1.8652-0.29688s-1.278 0.10599-1.8652 0.29688c0.23867-1.6471 0.81258-2.2969 1.8652-2.2969zm0 4c2.216 0 4 1.784 4 4s-1.784 4-4 4-4-1.784-4-4 1.784-4 4-4zm2.4746 1.5254-1.0605 0.35352-0.73242 0.24219a2 2 0 0 0-2.0957 0.46484 2 2 0 0 0 0 2.8281 2 2 0 0 0 2.8281 0 2 2 0 0 0 0.46484-2.0957l0.24219-0.73242 0.35352-1.0605z" fill="#4c5263"/>
</svg>
