<svg width="16" height="16" version="1.1" xmlns="http://www.w3.org/2000/svg">
<path d="m3 1c-1 0-1 1-1 1v8.244l2e-3 -2e-3c1.359-1.715 3.5095-3.242 6.998-3.242 2.118 0 3.742 0.5654 5 1.3906v-3.3906l-4-4h-7zm-1 12.756v1.244c0 1 1 1 1 1h1.6836c-1.1358-0.595-2.0088-1.392-2.6836-2.244z" fill="#4c5263"/>
<path d="m9 8c-4 0-5.845 2-7 4 1.155 2 3 4 7 4s5.845-2 7-4c-1.155-2-3-4-7-4zm0 1.5a2.5 2.5 0 0 1 2.5 2.5 2.5 2.5 0 0 1-2.5 2.5 2.5 2.5 0 0 1-2.5-2.5 2.5 2.5 0 0 1 2.5-2.5zm0 1.5a1 1 0 0 0-1 1 1 1 0 0 0 1 1 1 1 0 0 0 1-1 1 1 0 0 0-1-1z" fill="#4c5263"/>
</svg>
