<svg width="16" height="16" version="1.1" xmlns="http://www.w3.org/2000/svg">
<defs>
<style id="current-color-scheme" type="text/css">.ColorScheme-Text { color:#dfdfdf; } .ColorScheme-Highlight { color:#4285f4; }</style>
</defs>
<path d="m8 1.0026c-1.4477 0-2.8959 0.27618-4.2578 0.82812-0.68096 0.27608-1.3414 0.62108-1.9688 1.0352-0.62734 0.41404-1.2212 0.89728-1.7734 1.4492l6.5508 7.9316h0.00195c0.37724 0.39311 0.89848 0.61531 1.4434 0.61523 0.54638-9.2e-4 1.0686-0.22533 1.4453-0.62109h0.00391l6.5547-7.9258c-0.82908-0.82858-1.7541-1.5018-2.7402-2.0195-0.0223-0.0117-0.04596-0.01975-0.06836-0.03125-0.35147-0.18159-0.71134-0.34018-1.0762-0.48242-0.13732-0.0535-0.27712-0.098494-0.41602-0.14648-0.25375-0.0876-0.50937-0.1673-0.76758-0.23633-0.1588-0.0425-0.31835-0.081708-0.47852-0.11719-0.26382-0.0583-0.53022-0.10526-0.79688-0.14453-0.14585-0.0215-0.29107-0.0467-0.4375-0.0625-0.40533-0.0436-0.81134-0.072266-1.2188-0.072266zm0 1.9453c0.25463 0 0.50839 0.017672 0.76172 0.044922 0.091517 0.00987 0.18228 0.025625 0.27344 0.039062 0.16665 0.024543 0.33316 0.053407 0.49805 0.089844 0.10011 0.022175 0.19958 0.047657 0.29883 0.074219 0.16138 0.043143 0.32187 0.091735 0.48047 0.14648 0.08681 0.029993 0.17395 0.05836 0.25977 0.091797 0.22802 0.088899 0.45221 0.18924 0.67188 0.30273 0.014 0.00719 0.02903 0.012211 0.04297 0.019531 0.61631 0.32356 1.1947 0.74386 1.7129 1.2617l-4.0957 4.9531h-0.00391c-0.23543 0.24734-0.56086 0.3881-0.90234 0.38867-0.34055 4.9e-5 -0.66657-0.13907-0.90234-0.38476h-0.00195l-4.0938-4.957c0.34512-0.34496 0.71729-0.64748 1.1094-0.90625 0.39212-0.2588 0.80487-0.47394 1.2305-0.64648 0.85118-0.34496 1.7554-0.51758 2.6602-0.51758z" fill="#dfdfdf"/>
</svg>
