<svg width="16" height="16" version="1.1" xmlns="http://www.w3.org/2000/svg">
<defs>
<style id="current-color-scheme" type="text/css">.ColorScheme-Text { color:#dfdfdf; } .ColorScheme-Highlight { color:#4285f4; }</style>
</defs>
<path d="m2 2s-1 0-1 1v9c0 1 1 1 1 1h2l1 1h4v-2h-3l-1-1h-2v-7h1v4h2v-4h1v4h2v-4h1v4h2v-4h1v4c0.774 0 1.471 0.30878 2 0.80078v-5.8008c0-1-1-1-1-1h-12z" fill="#dfdfdf"/>
<path class="ColorScheme-Text" d="m13 9c-1.108 0-2 0.911-2 2.031v0.969h-1v4h6v-4h-1v-0.969c0-1.12-0.892-2.031-2-2.031zm0 1c0.554 0 1 0.442 1 1v1h-2v-1c0-0.558 0.446-1 1-1z" fill="currentColor"/>
</svg>
