<svg width="16" height="16" version="1.1" xmlns="http://www.w3.org/2000/svg">
<defs>
<style id="current-color-scheme" type="text/css">.ColorScheme-Text { color:#dfdfdf; } .ColorScheme-Highlight { color:#4285f4; }</style>
</defs>
<path class="ColorScheme-Text" d="m15 1-14 14h8v-4h1.01c0.02-1.64 1.35-3 2.99-3 0.77 0 1.47 0.31 2 0.8z" color="#dfdfdf" fill="currentColor" opacity=".3"/>
<path d="m5.9902 10-4.9902 5h2.9902c1.1046 0 2-0.89543 2-2z" fill="#dfdfdf"/>
<path class="ColorScheme-Text" d="m13 9c-1.11 0-2 0.91-2 2.03v0.97h-1v4h6v-4h-1v-0.97c0-1.12-0.89-2.03-2-2.03zm0 1c0.55 0 1 0.44 1 1v1h-2v-1c0-0.56 0.45-1 1-1z" fill="currentColor"/>
</svg>
