<svg width="16" height="16" version="1.1" xmlns="http://www.w3.org/2000/svg">
<defs>
<style id="current-color-scheme" type="text/css">.ColorScheme-Text { color:#dfdfdf; } .ColorScheme-Highlight { color:#4285f4; }</style>
</defs>
<path d="m15 1-10 10h5.0137c0.019-1.64 1.3423-3 2.9863-3 0.774 0 1.471 0.31078 2 0.80078z" color="#dfdfdf" fill="currentColor" opacity=".3"/>
<path class="ColorScheme-Text" d="m13 9c-1.108 0-2 0.91-2 2.03v0.97h-1v4h6v-4h-1v-0.97c0-1.12-0.892-2.03-2-2.03zm0 1c0.554 0 1 0.44 1 1v1h-2v-1c0-0.56 0.446-1 1-1z" color="#dfdfdf" fill="currentColor"/>
<path d="M 8.9941,7.0059 1,15 6.9922,14.996 a 2,2 0 0 0 2,-2 z" fill="#dfdfdf"/>
</svg>
