<svg width="16" height="16" version="1.1" xmlns="http://www.w3.org/2000/svg">
<defs>
<style id="current-color-scheme" type="text/css">.ColorScheme-Text { color:#dfdfdf; } .ColorScheme-Highlight { color:#4285f4; }</style>
</defs>
<path d="m8 1.9983c-1.4477 0-2.8959 0.27617-4.2578 0.82812-0.68096 0.27608-1.3414 0.62112-1.9688 1.0352-0.62734 0.41404-1.2212 0.89726-1.7734 1.4492l6.5508 7.9316h2e-3c0.37724 0.39311 0.89852 0.61531 1.4434 0.61523 0.54638-9.2e-4 1.0686-0.22533 1.4453-0.62109h4e-3l6.5547-7.9258c-0.82908-0.82858-1.7541-1.5018-2.7402-2.0195-0.0223-0.0117-0.046-0.0197-0.0684-0.0312-0.35147-0.18159-0.71137-0.34018-1.0762-0.48242-0.13732-0.0535-0.27712-0.0985-0.41602-0.14649-0.25375-0.0876-0.50936-0.1673-0.76757-0.23633-0.1588-0.0425-0.31835-0.0817-0.47852-0.11718-0.26382-0.0583-0.53022-0.10527-0.79687-0.14454-0.14585-0.0215-0.29107-0.0467-0.4375-0.0625-0.40533-0.0436-0.81139-0.0723-1.2188-0.0723z" fill="#dfdfdf" opacity=".3"/>
</svg>
