<svg width="16" height="16" version="1.1" viewBox="0 0 16 16" xmlns="http://www.w3.org/2000/svg">
<defs>
<style id="current-color-scheme" type="text/css">.ColorScheme-Text { color:#444444; } .ColorScheme-Highlight { color:#5294e2; }</style>
</defs>
<path d="m3 2c-1.1046 0-2 0.89543-2 2v9c0 1.1046 0.89543 2 2 2h10c1.1046 0 2-0.89543 2-2v-7a2 2 0 0 0-2-2h-4l-2-2zm7.5 5c0.82843 0 1.5 0.67157 1.5 1.5s-0.67157 1.5-1.5 1.5-1.5-0.67157-1.5-1.5 0.67157-1.5 1.5-1.5zm0 4c2.5 0 2.5 1.5 2.5 1.5v0.5h-5v-0.5s0-1.5 2.5-1.5z" color="#000000" fill="#808080" style="text-decoration-line:none;text-indent:0;text-transform:none"/>
</svg>
