<svg width="16" height="16" version="1.1" viewBox="0 0 16 16" xmlns="http://www.w3.org/2000/svg">
<defs>
<style id="current-color-scheme" type="text/css">.ColorScheme-Text { color:#444444; } .ColorScheme-Highlight { color:#5294e2; }</style>
</defs>
<g transform="translate(-624 -402)" enable-background="new" fill="#808080">
<path d="m631 403a2 2 0 0 0-2 2v6.1875c-0.31647-0.11352-0.64447-0.1875-1-0.1875-1.6568 0-3 1.3432-3 3s1.3432 3 3 3 3-1.3432 3-3v-7h6v4.1875c-0.31647-0.11352-0.64447-0.1875-1-0.1875-1.6568 0-3 1.3432-3 3s1.3432 3 3 3 3-1.3432 3-3v-9a2 2 0 0 0-2-2z" fill="#808080"/>
</g>
</svg>
