<svg width="16" height="16" version="1.1" xmlns="http://www.w3.org/2000/svg">
<defs>
<style id="current-color-scheme" type="text/css">.ColorScheme-Text { color:#444444; } .ColorScheme-Highlight { color:#4285f4; }</style>
<filter color-interpolation-filters="sRGB">
<feBlend in2="BackgroundImage" mode="darken"/>
</filter>
<filter color-interpolation-filters="sRGB">
<feBlend in2="BackgroundImage" mode="darken"/>
</filter>
</defs>
<g transform="translate(17.669 -3.3381)" fill="#808080">
<path d="m-7.6691 3.3381v6h2.5l-4.5 7-4.5-7h2.5v-6z"/>
<path d="m-14.669 17.338c-0.55228 0-1 0.44772-1 1s0.44772 1 1 1h10c0.55228 0 1-0.44772 1-1s-0.44772-1-1-1z"/>
</g>
<g transform="translate(-155.98 -279.77)" enable-background="new" fill="#4c5263">
<path d="m534-38v6h2.5l-4.5 7-4.5-7h2.5v-6z"/>
<path d="m527-24c-0.55228 0-1 0.44772-1 1s0.44772 1 1 1h10c0.55228 0 1-0.44772 1-1s-0.44772-1-1-1z"/>
</g>
<g transform="translate(-154.49 -281.85)" enable-background="new" fill="#4c5263">
<path d="m534-38v6h2.5l-4.5 7-4.5-7h2.5v-6z"/>
<path d="m527-24c-0.55228 0-1 0.44772-1 1s0.44772 1 1 1h10c0.55228 0 1-0.44772 1-1s-0.44772-1-1-1z"/>
</g>
</svg>
