<svg width="16" height="16" enable-background="new" version="1.1" xmlns="http://www.w3.org/2000/svg" xmlns:osb="http://www.openswatchbook.org/uri/2009/osb">
<title>Pop Symbolic Icon Theme</title>
<path d="m6.5 1c-0.82235 0-1.5 0.67765-1.5 1.5v2c0 0.82235 0.67765 1.5 1.5 1.5h0.5v1h-6v2h2v1h-0.5c-0.82235 0-1.5 0.67765-1.5 1.5v2c0 0.82235 0.67765 1.5 1.5 1.5h3c0.82235 0 1.5-0.67765 1.5-1.5v-2c0-0.82235-0.67765-1.5-1.5-1.5h-0.5v-1h6v1h-0.5c-0.82235 0-1.5 0.67765-1.5 1.5v2c0 0.82235 0.67765 1.5 1.5 1.5h3c0.82235 0 1.5-0.67765 1.5-1.5v-2c0-0.82235-0.67765-1.5-1.5-1.5h-0.5v-1h2v-2h-6v-1h0.5c0.82235 0 1.5-0.67765 1.5-1.5v-2c0-0.82235-0.67765-1.5-1.5-1.5h-3zm0 1h3c0.28565 0 0.5 0.21435 0.5 0.5v2c0 0.28565-0.21435 0.5-0.5 0.5h-3c-0.28565 0-0.5-0.21435-0.5-0.5v-2c0-0.28565 0.21435-0.5 0.5-0.5zm-4 9h3c0.28565 0 0.5 0.21435 0.5 0.5v2c0 0.28565-0.21435 0.5-0.5 0.5h-3c-0.28565 0-0.5-0.21435-0.5-0.5v-2c0-0.28565 0.21435-0.5 0.5-0.5zm8 0h3c0.28565 0 0.5 0.21435 0.5 0.5v2c0 0.28565-0.21435 0.5-0.5 0.5h-3c-0.28565 0-0.5-0.21435-0.5-0.5v-2c0-0.28565 0.21435-0.5 0.5-0.5z" color="#000000" color-rendering="auto" dominant-baseline="auto" enable-background="accumulate" fill="#808080" image-rendering="auto" shape-rendering="auto" solid-color="#000000" style="font-feature-settings:normal;font-variant-alternates:normal;font-variant-caps:normal;font-variant-ligatures:normal;font-variant-numeric:normal;font-variant-position:normal;isolation:auto;mix-blend-mode:normal;shape-padding:0;text-decoration-color:#000000;text-decoration-line:none;text-decoration-style:solid;text-indent:0;text-orientation:mixed;text-transform:none;white-space:normal"/>
</svg>
