<svg width="16" height="16" version="1.1" viewBox="0 0 16 16" xmlns="http://www.w3.org/2000/svg">
<defs>
<style id="current-color-scheme" type="text/css">.ColorScheme-Text { color:#444444; } .ColorScheme-Highlight { color:#5294e2; }</style>
</defs>
<path d="m4 2a3 3 0 0 0-3 3 3 3 0 0 0 1.0293 2.2598c-0.61174 0.3413-1.0293 0.98726-1.0293 1.7402v2c0 1.108 0.892 2 2 2h7c1.108 0 2-0.892 2-2l3 2v-6l-3 2c0-0.4004-0.11924-0.76995-0.32031-1.082a3 3 0 0 0 2.3203-2.918 3 3 0 0 0-3-3 3 3 0 0 0-3 3 3 3 0 0 0 0.76953 2h-2.5391a3 3 0 0 0 0.76953-2 3 3 0 0 0-3-3z" fill="#808080"/>
</svg>
