<svg width="16" height="16" enable-background="new" version="1.1" xmlns="http://www.w3.org/2000/svg" xmlns:osb="http://www.openswatchbook.org/uri/2009/osb">
<title>Pop Symbolic Icon Theme</title>
<g fill="#808080">
<path d="m14 1.0034c0.554 0 1 0.446 1 1v2c0 0.554-0.446 1-1 1h-12c-0.554 0-1-0.446-1-1v-2c0-0.554 0.446-1 1-1zm-1 1c-0.554 0-1 0.446-1 1s0.446 1 1 1 1-0.446 1-1-0.446-1-1-1z"/>
<path d="m14 5.8784c0.554 0 1 0.446 1 1v2.125c0 0.554-0.446 1-1 1h-12c-0.554 0-1-0.446-1-1v-2.125c0-0.554 0.446-1 1-1zm-1 1.125c-0.554 0-1 0.446-1 1s0.446 1 1 1 1-0.446 1-1-0.446-1-1-1z" enable-background="new"/>
<path d="m14 11.003c0.554 0 1 0.446 1 1v2c0 0.554-0.446 1-1 1h-12c-0.554 0-1-0.446-1-1v-2c0-0.554 0.446-1 1-1zm-1 1a1 1 0 0 0-1 1 1 1 0 0 0 1 1 1 1 0 0 0 1-1 1 1 0 0 0-1-1z" enable-background="new"/>
</g>
</svg>
