<svg width="22" height="22" version="1.1" xmlns="http://www.w3.org/2000/svg">
<defs>
<style id="current-color-scheme" type="text/css">.ColorScheme-Text { color:#444444; } .ColorScheme-Highlight { color:#4285f4; }</style>
</defs>
<path d="m8 3v1h-1c-1.6447 0-3 1.3553-3 3v8c0 1.6447 1.3553 3 3 3h1v1h6v-1h1c1.6447 0 3-1.3553 3-3v-8c0-1.6447-1.3553-3-3-3h-1v-1zm-1 3h8c0.5713 0 1 0.4287 1 1v8c0 0.5713-0.4287 1-1 1h-8c-0.5713 0-1-0.4287-1-1v-8c0-0.5713 0.4287-1 1-1zm2 1v4.5781l4.5 2.5977 1-1.7324-3.5-2.0215v-3.4219z" color="#000000" color-rendering="auto" dominant-baseline="auto" fill="#808080" image-rendering="auto" shape-rendering="auto" solid-color="#000000" style="font-feature-settings:normal;font-variant-alternates:normal;font-variant-caps:normal;font-variant-ligatures:normal;font-variant-numeric:normal;font-variant-position:normal;isolation:auto;mix-blend-mode:normal;shape-padding:0;text-decoration-color:#000000;text-decoration-line:none;text-decoration-style:solid;text-indent:0;text-orientation:mixed;text-transform:none;white-space:normal"/>
</svg>
