<svg width="16" height="16" version="1.1" viewBox="0 0 16 16" xmlns="http://www.w3.org/2000/svg">
<path d="m8 3a4 4 0 0 0-4 4 4 4 0 0 0 4 4 4 4 0 0 0 2.332-0.75586l3.0273 2.5234a1.0001 1.0001 0 1 0 1.2812-1.5352l-3.0293-2.5234a4 4 0 0 0 0.38867-1.709 4 4 0 0 0-4-4zm-7 0.0039062v2h2v-2h-2zm7 1.9961a2 2 0 0 1 2 2 2 2 0 0 1-0.03125 0.33984 2 2 0 0 1-1.2793 1.5352 2 2 0 0 1-0.19141 0.060547 2 2 0 0 1-0.17969 0.037109 2 2 0 0 1-0.091797 0.011719 2 2 0 0 1-0.11523 0.011719 2 2 0 0 1-0.0078125 0 2 2 0 0 1-0.10352 0.0039062 2 2 0 0 1-2-2 2 2 0 0 1 0.0097656-0.19922 2 2 0 0 1 1.9902-1.8008zm-7 2.0039v2h2v-2h-2zm0 4v2h2v-2h-2z" fill="#4c5263"/>
</svg>
