<svg width="16" height="16" version="1.1" xmlns="http://www.w3.org/2000/svg">
<path d="m4.7891 2-3.7891 11h1.9062l0.67969-2h3.8301l0.6875 2h1.8965l-3.7891-11zm0.70898 3.4375 1.1855 3.5625h-2.3691zm6.002 2.5625v1h3c0.215 0 0.5 0.305 0.5 0.5v0.5h-2.5c-0.46 0-0.87 0.18938-1.125 0.48438-0.255 0.29-0.375 0.65562-0.375 1.0156s0.13562 0.72562 0.39062 1.0156 0.65438 0.48438 1.1094 0.48438h3.5v-3.5c0-0.815-0.66-1.5-1.5-1.5zm1 3h2.5v1h-2.5c-0.2 0-0.28438-0.055625-0.35938-0.14062s-0.14062-0.21938-0.14062-0.35938 0.05-0.27438 0.125-0.35938c0.075-0.08 0.165-0.14062 0.375-0.14062z" fill="#4c5263"/>
</svg>
