<svg width="16" height="16" version="1.1" viewBox="0 0 16 16" xmlns="http://www.w3.org/2000/svg">
<path d="m15 5h-2v-2.0684c0-1.0697-0.93907-1.9316-2.1055-1.9316h-5.7891c-1.166 0-2.1055 0.86194-2.1055 1.9316v10.137c0 1.07 0.93947 1.9316 2.1055 1.9316h5.7891c1.1664 0 2.1055-0.86164 2.1055-1.9316v-2.0684h-2v1.998c-9e-3 -2e-3 -0.026269 0.001953-0.10547 0.001953h-5.7891c-0.079 0-0.096469-0.003953-0.10547-0.001953v-9.9941c9e-3 0.0010001 0.026469-0.0039062 0.10547-0.0039062h5.7891c0.0792 0 0.09657 0.00491 0.10547 0.00391v1.9961h-2l3 4z" fill="#4c5263"/>
</svg>
