<svg width="16" height="16" version="1.1" xmlns="http://www.w3.org/2000/svg">
<path d="m8 1c-1.825 1.725-5 3-6 3.25 0 4.75 2.25 10 6 10.75 3.75-0.75 6-6 6-10.75-1-0.25-4.175-1.525-6-3.25zm0 4c0.6179 0.0016 1.2202 0.194 1.7246 0.5508l0.2754-0.5508 1 2h-2l0.2695-0.5391c-0.3569-0.2962-0.8057-0.4591-1.2695-0.4609-1.1046 0-2 0.8954-2 2h-1c0-1.6569 1.3431-3 3-3zm2 3h1c0 1.6569-1.3431 3-3 3-0.6179-2e-3 -1.2202-0.194-1.7246-0.551l-0.2754 0.551-1-2h2l-0.2695 0.5391c0.3569 0.2962 0.8057 0.4591 1.2695 0.4609 1.1046 0 2-0.8954 2-2z" fill="#4c5263"/>
</svg>
