<svg width="16" height="16.003" enable-background="new" version="1.1" xmlns="http://www.w3.org/2000/svg">
<title>Pop Symbolic Icon Theme</title>
<path d="m8 5e-5c-0.9665 0-1.7725 0.68629-1.959 1.5977-0.0267 0.13019-0.041 0.26427-0.041 0.40234h-1c-7e-3 0-0.0128 2e-3 -0.0195 2e-3 -1.0954 0.0107-1.9805 0.90013-1.9805 1.998v10.002l2 0.99805h6l0.19922-0.01 1.8008-0.98805v-10.002c0-1.0979-0.88515-1.9873-1.9805-1.998-7e-3 -6e-5 -0.0128-2e-3 -0.0195-2e-3l-1 2e-3v-2e-3c0-1.1046-0.89543-2-2-2z" enable-background="new" fill="#4285f4" opacity=".3"/>
<path d="m4 13.002c-0.554 0-1 0.446-1 1v2e-3c0 0.554 0.446 1 1 1h8c0.554 0 1-0.446 1-1v-2e-3c0-0.554-0.446-1-1-1z" fill="#4285f4"/>
</svg>
