<svg width="16" height="16" enable-background="new" version="1.1" xmlns="http://www.w3.org/2000/svg" xmlns:osb="http://www.openswatchbook.org/uri/2009/osb">
<title>Pop Symbolic Icon Theme</title>
<defs>
<filter color-interpolation-filters="sRGB">
<feBlend in2="BackgroundImage" mode="darken"/>
</filter>
</defs>
<path d="m8.0006 0.00225c-0.82843 0-1.5401 0.50287-1.8438 1.2207-0.10121 0.23928-0.15625 0.50315-0.15625 0.7793h-4e-3a2 2 0 0 0 0 2e-3h-1.0156c-1.0953 0.0108-1.9805 0.90018-1.9805 1.998v9c0 1.1046 0.89543 2 2 2h6a2 2 0 0 0 2-2v-9c0-1.0979-0.88515-1.9873-1.9805-1.998h-1.0235a2 2 0 0 0 0-6e-3 2 2 0 0 0-4e-3 -0.0664c-3e-3 -0.0945-0.0113-0.18854-0.0273-0.27929a2 2 0 0 0-0.0254-0.11719c-0.0193-0.0804-0.0436-0.15807-0.0723-0.23438a2 2 0 0 0-0.0547-0.13671c-0.0382-0.0825-0.0822-0.1623-0.13086-0.23829a2 2 0 0 0-0.0352-0.0566 2 2 0 0 0-6e-3 -8e-3c-0.0603-0.0867-0.1282-0.16819-0.20117-0.24414a2 2 0 0 0-0.041-0.0449c-0.0775-0.0759-0.16102-0.14444-0.25-0.20703a2 2 0 0 0-0.0488-0.0332c-0.0936-0.0618-0.19313-0.11458-0.29688-0.16015a2 2 0 0 0-0.041-0.0195c-0.11136-0.0459-0.22921-0.0821-0.34961-0.10742a2 2 0 0 0-0.01-4e-3c-2e-3 -5.1e-4 -5e-3 5e-4 -8e-3 0-0.12787-0.0256-0.25912-0.0391-0.39454-0.0391zm-1 4.002h2v4l-0.25 2h-1.5l-0.25-2zm0 7h2v2h-2z" fill="#4285f4"/>
</svg>
