<svg width="16" height="16" enable-background="new" version="1.1" xmlns="http://www.w3.org/2000/svg" xmlns:osb="http://www.openswatchbook.org/uri/2009/osb">
<title>Pop Symbolic Icon Theme</title>
<path d="m2 0.00342c-1.9998 0-2 2-2 2v9s2e-4 2 2 2h12s2 0 2-2c2e-4 -3e-3 0-5.6671 0-8.9999 0 0 2e-4 -2-2-2zm-2.1e-4 1.9999h12v8.0004l-12-3.6e-4zm1 13 2e-4 0.99664h10l-2e-4 -0.99664c0-1-1-1-1-1h-8.0218s-0.97823 0-0.97823 1z" enable-background="new" fill="#4c5263" opacity=".3"/>
<rect x="3" y="8.0033" width="10" height="1.0001" ry="2.3132e-17" enable-background="new" fill="#4c5263" opacity=".3"/>
</svg>
