<svg width="16" height="16" enable-background="new" version="1.1" xmlns="http://www.w3.org/2000/svg" xmlns:osb="http://www.openswatchbook.org/uri/2009/osb">
<title>Pop Symbolic Icon Theme</title>
<path d="m1.9998 2.0034c-1 0-1 1-1 1v1.9961h14v-1.9961c0-1-1-1-1-1zm-1 11c0 1 1 1 1 1h12s1 0 1-1v-2.0039h-14z" color="#000000" enable-background="new" fill="#4c5263" opacity=".3" style="text-decoration-line:none;text-indent:0;text-transform:none"/>
<path d="m3 5.9962c-1.108 0-2 0.892-2 2s0.892 2 2 2 2-0.892 2-2-0.892-2-2-2zm5 0c-1.108 0-2 0.892-2 2s0.892 2 2 2 2-0.892 2-2-0.892-2-2-2zm5 0c-1.108 0-2 0.892-2 2s0.892 2 2 2 2-0.892 2-2-0.892-2-2-2z" color="#000000" enable-background="new" fill="#4c5263"/>
</svg>
