<svg width="16" height="16" enable-background="new" version="1.1" xmlns="http://www.w3.org/2000/svg" xmlns:osb="http://www.openswatchbook.org/uri/2009/osb">
<title>Pop Symbolic Icon Theme</title>
<path d="m6 1v2h-2c-1.6447 0-3 1.3553-3 3v4c0 1.6447 1.3553 3 3 3h8c1.6447 0 3-1.3553 3-3v-4c0-1.6447-1.3553-3-3-3h-1v2h1c0.5713 0 1 0.4287 1 1v4c0 0.5713-0.4287 1-1 1h-8c-0.5713 0-1-0.4287-1-1v-4c0-0.5713 0.4287-1 1-1h2v2l4-3z" color="#000000" fill="#4c5263" opacity=".3" style="text-indent:0;text-transform:none"/>
</svg>
