<svg width="16.001" height="16.001" enable-background="new" version="1.1" xmlns="http://www.w3.org/2000/svg" xmlns:osb="http://www.openswatchbook.org/uri/2009/osb">
<title>Pop Symbolic Icon Theme</title>
<path d="m8 0.00126c-1.6621 0-3 1.3379-3 3v5c0 1.6621 1.3379 3 3 3 1.6621 0 3-1.3379 3-3v-5c0-1.6621-1.3379-3-3-3zm0 2c0.554 0 1 0.446 1 1v5c0 0.554-0.446 1-1 1s-1-0.446-1-1v-5c0-0.554 0.446-1 1-1zm-5 4.998a1 1 0 0 0-1 1 1 1 0 0 0 0 2e-3v4e-3a1 1 0 0 0 4e-3 0.082c0.0416 2.9306 2.1861 5.3508 4.9961 5.8203v1.0917a1 1 0 0 0 1 1 1 1 0 0 0 1-1v-1.0918c2.8376-0.47408 5-2.9368 5-5.9062a1 1 0 0 1 0-2e-3 1 1 0 0 0-1-1 1 1 0 0 0-1 1 1 1 0 0 1 0 2e-3c0 2.2334-1.7666 4-4 4-2.2334 0-4-1.7666-4-4a1 1 0 0 0 0-2e-3 1 1 0 0 0-1-1z" color="#bebebe" fill="#4c5263" opacity=".3"/>
</svg>
