<svg width="16" height="16" enable-background="new" version="1.1" xmlns="http://www.w3.org/2000/svg" xmlns:osb="http://www.openswatchbook.org/uri/2009/osb">
<title>Pop Symbolic Icon Theme</title>
<path d="m14.997 11.998a1 1 0 0 1-1 1 1 1 0 0 1-1-1 1 1 0 0 1 1-1 1 1 0 0 1 1 1zm-3 0a1 1 0 0 1-1 1 1 1 0 0 1-1-1 1 1 0 0 1 1-1 1 1 0 0 1 1 1zm-3 0a1 1 0 0 1-1 1 1 1 0 0 1-1-1 1 1 0 0 1 1-1 1 1 0 0 1 1 1z" enable-background="new" fill="#4c5263"/>
<path d="m1.9966 1.9984s-1 1e-5 -1 1v9c0 0.99999 1 1 1 1h2l1 1h1v-2l-1-1h-2v-7h1v3h2v-3h1v3h2v-3h1v3h2v-3h1v6h2v-7c0-0.99999-1-1-1-1z" fill="#4c5263" opacity=".3"/>
</svg>
