<svg width="16" height="16" version="1.1" xmlns="http://www.w3.org/2000/svg">
<defs>
<style id="current-color-scheme" type="text/css">.ColorScheme-Text { color:#dfdfdf; } .ColorScheme-Highlight { color:#4285f4; }</style>
</defs>
<g transform="translate(0,-1)" fill="#4c5263">
<path d="m8 1.9984c-2.8954 0-5.7909 1.1047-8 3.3125l6.5469 7.9316h0.0059c0.37724 0.39311 0.89848 0.61531 1.4434 0.61523 0.35789-6.02e-4 0.70085-0.10548 1.0039-0.2832v-2.5664h1.0508v-0.68359c0-0.90787 1.2078-2.3164 2.9492-2.3164 0.24245 0 0.47236 0.0374 0.69531 0.08984l2.3047-2.7871c-2.2091-2.2078-5.1046-3.3125-8-3.3125z" opacity=".3"/>
<path d="m8 6.998c-1.782 0-3.5642 0.67832-4.9238 2.0371l3.4746 4.207h0.00195c0.37724 0.39311 0.8984 0.61531 1.4434 0.61523 0.1696-2.85e-4 0.33586-0.02652 0.49609-0.07031 6.02e-4 -1.56e-4 0.0014 1.56e-4 2e-3 0 0.02118-0.0055 0.04153-0.01334 0.0625-0.01953 2e-3 -6.1e-4 0.0039-0.0013 0.0059-2e-3 0.15233-0.04768 0.2994-0.11042 0.4375-0.19141v-2.5664h1.0508v-0.68359c-3.6e-5 -0.70346 0.73052-1.6988 1.8672-2.1152-1.1785-0.80455-2.5465-1.2109-3.918-1.2109z"/>
<path class="ColorScheme-Text" d="m13 9c-1.108 0-2 0.911-2 2.031v0.969h-1v4h6v-4h-1v-0.969c0-1.12-0.892-2.031-2-2.031zm0 1c0.554 0 1 0.442 1 1v1h-2v-1c0-0.558 0.446-1 1-1z" color="#dfdfdf"/>
</g>
</svg>
