<svg width="16" height="16" enable-background="new" version="1.1" xmlns="http://www.w3.org/2000/svg" xmlns:osb="http://www.openswatchbook.org/uri/2009/osb">
<title>Pop Symbolic Icon Theme</title>
<defs>
<filter color-interpolation-filters="sRGB">
<feBlend in2="BackgroundImage" mode="darken"/>
</filter>
</defs>
<g transform="translate(-325 614.99)">
<path d="m333-613.99c-1.1491 0-2.2962 0.18142-3.4024 0.5293-0.33011 0.10379-0.65726 0.22065-0.97851 0.35547-0.14588 0.0612-0.28791 0.1336-0.43164 0.20117-0.23754 0.11177-0.47226 0.23015-0.70313 0.35937-0.15004 0.0839-0.29842 0.17046-0.44531 0.26172-0.22991 0.14298-0.4544 0.29798-0.67578 0.45899-0.1301 0.0946-0.2618 0.18632-0.38867 0.28711-0.33591 0.267-0.66384 0.54879-0.97461 0.85937l6.5508 7.9316h2e-3c0.37724 0.39311 0.89852 0.61532 1.4434 0.61524 0.54638-9.2e-4 1.0686-0.22534 1.4453-0.6211h4e-3l6.5547-7.9258c-0.25239-0.25223-0.51589-0.48555-0.78516-0.70898-0.0665-0.0553-0.13564-0.10666-0.20312-0.16016-0.21478-0.17008-0.43444-0.3321-0.65821-0.48437-0.0725-0.0494-0.14346-0.10096-0.21679-0.14844-0.60139-0.38903-1.2292-0.719-1.8789-0.98242l-2e-3 -2e-3c-1.3613-0.55152-2.809-0.82617-4.2559-0.82617zm0 1.998c1.1046 0 2 0.89543 2 2s-0.89543 2-2 2v1h-1v-2h1c0.55229 0 1-0.44772 1-1s-0.44771-1-1-1c-0.55228 0-1 0.44772-1 1h-1c0-1.1046 0.89543-2 2-2zm-0.5 5.75c0.41421 0 0.75 0.33579 0.75 0.75s-0.33579 0.75-0.75 0.75-0.75-0.33579-0.75-0.75 0.33579-0.75 0.75-0.75z" fill="#4c5263"/>
</g>
</svg>
