<svg width="16" height="16.003" enable-background="new" version="1.1" xmlns="http://www.w3.org/2000/svg" xmlns:osb="http://www.openswatchbook.org/uri/2009/osb">
<title>Pop Symbolic Icon Theme</title>
<g fill="#4c5263">
<path d="m11 11.003v1c0 0.27614 0.10029 0.53779 0.28125 0.71875l0.78125 0.78125-0.78125 0.78125c-0.18096 0.18096-0.28125 0.44261-0.28125 0.71875v1h1c0.27614 0 0.53779-0.10029 0.71875-0.28125l0.78125-0.78125 0.78125 0.78125c0.18096 0.18096 0.44261 0.28125 0.71875 0.28125h1v-1c0-0.27614-0.10029-0.53779-0.28125-0.71875l-0.78125-0.78125 0.78125-0.78125c0.18096-0.18096 0.28125-0.44261 0.28125-0.71875v-1h-1c-0.27614 0-0.53779 0.10029-0.71875 0.28125l-0.78125 0.78125-0.78125-0.78125c-0.18096-0.18096-0.44261-0.28125-0.71875-0.28125z" enable-background="new"/>
<path d="m5.9983 5 4.5 5.5 4.5-5.5c-3e-3 4e-3 -1.3333 0-2 0v-3h-5v3h-2z" color="#000000" enable-background="new" opacity=".3"/>
<path d="m9.9983 12-4.5-5.5-4.5 5.5c3e-3 -4e-3 1.3333 0 2 0v3h5v-3h2z" color="#000000" enable-background="new" opacity=".3"/>
</g>
</svg>
