<svg width="16.002" height="16" enable-background="new" version="1.1" xmlns="http://www.w3.org/2000/svg">
<title>Pop Symbolic Icon Theme</title>
<path d="m4.5 2.9984c-2.4853 0-4.5 2.0147-4.5 4.5s2.0147 4.5 4.5 4.5c1.9047-3e-3 3.6014-1.2042 4.2363-3h2.2617v-3h-2.2617c-0.63489-1.7958-2.3316-2.9973-4.2363-3zm0 3c0.82843 0 1.5 0.67157 1.5 1.5s-0.67157 1.5-1.5 1.5-1.5-0.67157-1.5-1.5 0.67157-1.5 1.5-1.5zm10.498 0v3l1-2v-1z" fill="#4c5263" opacity=".3"/>
<path class="error" d="m11.998 5.9984-1e-5 4 0.25 2h1.5l0.25-2 1e-5 -4zm0 7v2h2v-2z" color="#444444" enable-background="new" fill="#4285f4"/>
</svg>
