<svg width="16" height="16" enable-background="new" version="1.1" xmlns="http://www.w3.org/2000/svg" xmlns:osb="http://www.openswatchbook.org/uri/2009/osb">
<title>Pop Symbolic Icon Theme</title>
<defs>
<filter color-interpolation-filters="sRGB">
<feBlend in2="BackgroundImage" mode="darken"/>
</filter>
</defs>
<path d="m3.9998 1.0034v2h8v-2zm-2 3c-0.5 0-1 0.5-1 1v4c0 0.5 0.5 1 1 1h1v-2h7v-2h4v4c0.5 0 1-0.5 1-1v-4c0-0.5-0.5-1-1-1zm2 5v5h6v-5z" fill="#4c5263"/>
<path class="error" d="m11 7v4.0156l0.25001 1.9844h1.5l0.25-2-1e-5 -4zm0 7v2h2v-2z" color="#bebebe" enable-background="accumulate" fill="#4285f4"/>
</svg>
