<svg width="16" height="16" enable-background="new" version="1.1" xmlns="http://www.w3.org/2000/svg" xmlns:osb="http://www.openswatchbook.org/uri/2009/osb">
<title>Pop Symbolic Icon Theme</title>
<path d="m3.9998 0.99945v2h8v-2zm-2 3c-0.5 0-1 0.5-1 1v4e-3h14v-4e-3c0-0.5-0.5-1-1-1zm2 7.0039v2.9961h8v-2.9961z" fill="#4c5263" opacity=".3"/>
<path d="m3 6c-1.108 0-2 0.892-2 2s0.892 2 2 2 2-0.892 2-2-0.892-2-2-2zm5 0c-1.108 0-2 0.892-2 2s0.892 2 2 2 2-0.892 2-2-0.892-2-2-2zm5 0c-1.108 0-2 0.892-2 2s0.892 2 2 2 2-0.892 2-2-0.892-2-2-2z" color="#000000" enable-background="new" fill="#4c5263"/>
</svg>
