<svg width="16.001" height="16" enable-background="new" version="1.1" xmlns="http://www.w3.org/2000/svg" xmlns:osb="http://www.openswatchbook.org/uri/2009/osb">
<title>Pop Symbolic Icon Theme</title>
<defs>
<filter color-interpolation-filters="sRGB">
<feBlend in2="BackgroundImage" mode="darken"/>
</filter>
</defs>
<path d="m8 1.9721c-3.3137 0-6 2.6863-6 6h-2l3 4 3-4h-2c0-2.2091 1.7909-4 4-4s4 1.7909 4 4c0 0.0668-0.0163 0.12927-0.0195 0.19531 0.31884-0.11945 0.65949-0.19531 1.0195-0.19531 0.34924 0 0.67942 0.0728 0.99023 0.18555 2e-3 -0.0622 0.01-0.12292 0.01-0.18555 0-3.3137-2.6863-6-6-6zm1 9.8574c-0.32138 0.0832-0.6526 0.14258-1 0.14258v2a1 1 0 0 0 0.0996-6e-3c0.30696-5e-3 0.60628-0.0404 0.90039-0.0898v-2.0469zm2 1.1426v0.1875c0.10355-0.0599 0.20517-0.12172 0.30469-0.1875z" fill="#4c5263" opacity=".3"/>
<path d="m13.001 8.9721c-1.108 0-2 0.91085-2 2.0312v0.96875h-1v4h6v-4h-1v-0.96875c0-1.1199-0.892-2.0312-2-2.0312zm0 1c0.554 0 1 0.4424 1 1v1h-2v-1c0-0.5576 0.446-1 1-1z" fill="#4c5263"/>
</svg>
