<svg width="16" height="16.003" enable-background="new" version="1.1" xmlns="http://www.w3.org/2000/svg" xmlns:osb="http://www.openswatchbook.org/uri/2009/osb">
<title>Pop Symbolic Icon Theme</title>
<defs>
<filter color-interpolation-filters="sRGB">
<feBlend in2="BackgroundImage" mode="darken"/>
</filter>
</defs>
<path d="m7.9685 0.00328c-1.0686-0.0284-2.0284 0.93145-2 2h-4s-1 0-1 1v11c0 1 1 1 1 1h8v-3h-6v-1h6v-1h5v-7c0-1-1-1-1-1h-4c0.0469-1.0818-0.93065-2.0219-2-2zm0 1c0.83678-0.0296 1.3543 1.1528 0.71875 1.7188-0.54266 0.60179-1.6775 0.18423-1.7188-0.625-0.0722-0.57256 0.42311-1.1073 1-1.0938zm-4 4h8v1h-8zm0 3h8v1h-8z" color="#000000" enable-background="accumulate" fill="#4c5263" opacity=".3"/>
<path d="m10.969 11.003v1c0 0.27614 0.10029 0.53779 0.28125 0.71875l0.78125 0.78125-0.78125 0.78125c-0.18096 0.18096-0.28125 0.44261-0.28125 0.71875v1h1c0.27614 0 0.53779-0.10029 0.71875-0.28125l0.78125-0.78125 0.78125 0.78125c0.18096 0.18096 0.44261 0.28125 0.71875 0.28125h1v-1c0-0.27614-0.10029-0.53779-0.28125-0.71875l-0.78125-0.78125 0.78125-0.78125c0.18096-0.18096 0.28125-0.44261 0.28125-0.71875v-1h-1c-0.27614 0-0.53779 0.10029-0.71875 0.28125l-0.78125 0.78125-0.78125-0.78125c-0.18096-0.18096-0.44261-0.28125-0.71875-0.28125z" enable-background="new" fill="#4c5263"/>
</svg>
