<svg width="16" height="16.003" enable-background="new" version="1.1" xmlns="http://www.w3.org/2000/svg" xmlns:osb="http://www.openswatchbook.org/uri/2009/osb">
<title>Pop Symbolic Icon Theme</title>
<defs>
<filter color-interpolation-filters="sRGB">
<feBlend in2="BackgroundImage" mode="darken"/>
</filter>
</defs>
<path d="m7.9685 0.00328c-1.0686-0.0284-2.0284 0.93145-2 2h-4s-1 0-1 1v11c0 1 1 1 1 1h9v-2-1h-7v-1h7v-2h-7v-1h7v-2h-7v-1h8v1h1.8438 1.1562v-3c0-1-1-1-1-1h-4c0.0469-1.0818-0.93065-2.0219-2-2zm0 1c0.83678-0.0296 1.3543 1.1528 0.71875 1.7188-0.54266 0.60179-1.6775 0.18423-1.7188-0.625-0.0722-0.57256 0.42311-1.1073 1-1.0938z" color="#000000" enable-background="accumulate" fill="#4c5263"/>
<path class="warning" d="m11.969 7.0033 1e-5 4 0.25 2h1.5l0.25-2-1e-5 -4zm0 7v2h2v-2z" color="#bebebe" enable-background="accumulate" fill="#4285f4"/>
</svg>
