<svg width="16" height="16" version="1.1" xmlns="http://www.w3.org/2000/svg">
<path d="m7.041 0.074224c-2.2293 0.2653-4.1789 1.4478-5.457 3.1602-0.00139 0.00186-0.00252 0.00399-0.00391 0.00586-0.13105 0.17589-0.25262 0.3583-0.36914 0.54492-0.019086 0.030471-0.037967 0.061071-0.056641 0.091797-0.10275 0.16962-0.19887 0.34392-0.28906 0.52148-0.025956 0.051806-0.051348 0.10389-0.076172 0.15625-0.079872 0.16611-0.15416 0.33558-0.22266 0.50781-0.027046 0.070591-0.05309 0.14156-0.078125 0.21289-0.057013 0.15622-0.11278 0.31206-0.16016 0.47266-0.028061 0.10169-0.054108 0.20392-0.078125 0.30664-0.036037 0.14282-0.073322 0.28588-0.10156 0.43164-0.017605 0.1019-0.033233 0.20413-0.046875 0.30664-0.023152 0.15054-0.049816 0.29994-0.064453 0.45312-0.012319 0.15469-0.020135 0.3097-0.023437 0.46484-0.0062998 0.096264-0.010858 0.19263-0.013672 0.28906v0.00977c-1.4294e-6 0.00197 0 0.00389 0 0.00586 0 0.00532 0.0019428 0.010311 0.0019531 0.015625 5.7439e-4 0.29572 0.026878 0.58563 0.058594 0.87305 0.012231 0.12077 0.027209 0.24124 0.044922 0.36133 0.031144 0.19901 0.075614 0.39206 0.12109 0.58594 0.062866 0.26413 0.13914 0.52488 0.22852 0.78125 0.037723 0.10907 0.072995 0.2193 0.11523 0.32617 0.078918 0.19606 0.16557 0.38892 0.25977 0.57812 0.030325 0.0618 0.061892 0.12271 0.09375 0.18359 0.10584 0.20539 0.22053 0.4061 0.34375 0.60156 0.4326 0.67382 0.96391 1.2789 1.5762 1.7949l0.00391 0.0039c0.38735 0.32452 0.80458 0.61161 1.2461 0.85742l0.36328-4.2266 1.1562 1.3789 2.0586-4.1309h-4.2441zm3.6738 0.41016-2.8828 5.5156h4.2207l-4.959 6.8457 1.9102 0.19922-3.1133 2.6621c0.68693 0.19122 1.3963 0.28975 2.1094 0.29297 4.1086 5.74e-4 7.5497-3.1112 7.9609-7.1992 6.2e-5 -6.415e-4 -6.3e-5 -0.00131 0-0.00195 0.02582-0.26028 0.03885-0.52166 0.03906-0.78321-1.2e-5 -0.00194 1.4e-5 -0.00392 0-0.00586-0.0023-0.32531-0.02773-0.65138-0.06836-0.97656-0.0049-0.042359-0.01008-0.084678-0.01563-0.12695-0.09446-0.6717-0.27151-1.3356-0.53515-1.9746-0.01978-0.044454-0.03996-0.088727-0.06055-0.13281-0.11251-0.25916-0.2413-0.51315-0.38281-0.76172-0.036807-0.066944-0.074571-0.13336-0.11328-0.19922-0.36582-0.60083-0.81634-1.165-1.3613-1.6699-0.0046-0.00456-0.0091-0.00912-0.01367-0.013672-0.0037-0.00337-8e-3 -0.0064-0.01172-0.00977-0.57101-0.52438-1.2408-0.98606-2.0137-1.3613v-0.003906c-0.23147-0.1096-0.46807-0.20802-0.70898-0.29492z" fill="#4c5263"/>
</svg>
