<svg width="16" height="16" enable-background="new" version="1.1" xmlns="http://www.w3.org/2000/svg" xmlns:osb="http://www.openswatchbook.org/uri/2009/osb">
<title>Pop Symbolic Icon Theme</title>
<g fill="#ff9800">
<path d="m7.9998 1.0034c-2.0296 0-3.8464 0.86996-5.125 2.25 0.35167-0.1447 0.72114-0.25 1.125-0.25 1.3911 0 2.5354 0.96568 2.875 2.25 0.35167-0.1447 0.72114-0.25 1.125-0.25s0.77333 0.1053 1.125 0.25c0.33956-1.2843 1.4839-2.25 2.875-2.25 0.40386 0 0.77333 0.1053 1.125 0.25-1.2786-1.38-3.0954-2.25-5.125-2.25z" color="#bebebe" enable-background="accumulate"/>
<path d="m3.9998 4.0034c-1.1046 0-2 0.89543-2 2s0.89543 2 2 2 2-0.89543 2-2c0 0.55064-0.44593 1-1 1-0.55424 0-1-0.44936-1-1 0-0.55055 0.44576-1 1-1 0.55407 0 1 0.44945 1 1 0-1.1046-0.89543-2-2-2z" color="#bebebe" enable-background="accumulate"/>
<path d="m12 4.0034c-1.1046 0-2 0.89543-2 2 0-0.55055 0.44593-1 1-1 0.55415 0 1 0.44945 1 1 0 0.55064-0.44585 1-1 1-0.55407 0-1-0.44936-1-1 0 1.1046 0.89543 2 2 2s2-0.89543 2-2-0.89543-2-2-2z" color="#bebebe" enable-background="accumulate"/>
<path d="m7.9998 6.0034c-0.37464 0-0.73151 0.10201-1.0312 0.28125-0.14632 1.5203-1.4101 2.7188-2.9688 2.7188-1.3807 0-2.5257-0.94901-2.875-2.2188-0.0701 0.39743-0.125 0.80122-0.125 1.2188 0 3.866 3.134 7 7 7s7-3.134 7-7c0-0.41753-0.0549-0.82132-0.125-1.2188-0.34927 1.2697-1.4943 2.2188-2.875 2.2188-1.5587 0-2.8224-1.1984-2.9688-2.7188-0.29974-0.17924-0.65661-0.28125-1.0312-0.28125z" color="#bebebe" enable-background="accumulate"/>
</g>
<g fill="#4c5263">
<path d="m5.1736 9.8295c0.74922 0.75042 1.7658 1.1728 2.8262 1.1738 1.0604-1e-3 2.077-0.42341 2.8262-1.1738l0.70703 0.70703c-0.93673 0.93797-2.2076 1.4658-3.5332 1.4668-1.3256-1e-3 -2.5965-0.52883-3.5332-1.4668z" color="#bebebe" enable-background="accumulate"/>
<g fill-rule="evenodd">
<path d="m3.998 3a3 3 0 0 0-3 3 3 3 0 0 0 3 3 3 3 0 0 0 2.9844-2.7227 1.4439 0.95697 0 0 1 1.0117-0.27539 1.4439 0.95697 0 0 1 1.0176 0.27734 3 3 0 0 0 2.9863 2.7207 3 3 0 0 0 3-3 3 3 0 0 0-3-3 3 3 0 0 0-2.9004 2.2441 1.8987 1.2585 0 0 0-1.1016-0.23633 1.8987 1.2585 0 0 0-1.0996 0.23438 3 3 0 0 0-2.8984-2.2422zm0.0058593 0.99219a2 2 0 0 1 2 2 2 2 0 0 1-2 2 2 2 0 0 1-2-2 2 2 0 0 1 2-2zm8 0a2 2 0 0 1 2 2 2 2 0 0 1-2 2 2 2 0 0 1-2-2 2 2 0 0 1 2-2z" style="paint-order:normal"/>
<circle cx="4.9992" cy="5.9986" r="1" style="paint-order:normal"/>
<circle cx="10.999" cy="5.9986" r="1" style="paint-order:normal"/>
</g>
</g>
</svg>
