<svg width="16" height="16" enable-background="new" version="1.1" xmlns="http://www.w3.org/2000/svg" xmlns:osb="http://www.openswatchbook.org/uri/2009/osb">
<title>Pop Symbolic Icon Theme</title>
<defs>
<filter color-interpolation-filters="sRGB">
<feBlend in2="BackgroundImage" mode="darken"/>
</filter>
</defs>
<path d="m7.9999 0.99945c-3.866 0-7 3.134-7 7s3.134 7 7 7 7-3.134 7-7-3.134-7-7-7z" color="#bebebe" enable-background="accumulate" fill="#8bc34a"/>
<g fill="#4c5263">
<path d="m4.9999 5.0034c0.55407 0 1 0.44945 1 1 0 0.55064-0.44593 1-1 1-0.55424 0-1-0.44936-1-1 0-0.55055 0.44576-1 1-1z" color="#bebebe" enable-background="accumulate"/>
<path d="m11 5.0034c0.55415 0 1 0.44945 1 1 0 0.55064-0.44585 1-1 1-0.55407 0-1-0.44936-1-1 0-0.55055 0.44593-1 1-1z" color="#bebebe" enable-background="accumulate"/>
<path d="m4.287 7.9877c0.097-3e-3 0.19274 0.0233 0.27539 0.0742 0.72245 0.44361 1.1725 1.1663 1.3438 1.9375h4.1875c0.17125-0.77124 0.6213-1.4626 1.3438-1.9062 0.1119-0.0694 0.24665-0.0918 0.375-0.0625 0.4282 0.1017 0.52567 0.66703 0.15625 0.90625-0.94633 0.58108-1.2686 1.8037-0.6875 2.75 0.0962 0.15658 0.23992 0.31293 0.375 0.4375 0.5 0.45833-0.1875 1.2083-0.6875 0.75-0.20262-0.18685-0.38703-0.42138-0.53125-0.65625-0.23297-0.37941-0.35813-0.80247-0.40625-1.2188h-4.0625c-0.0481 0.41628-0.17328 0.80809-0.40625 1.1875-0.14827 0.24146-0.32148 0.46577-0.53125 0.65625-0.5 0.45833-1.1875-0.29167-0.6875-0.75 0.13985-0.12699 0.2762-0.27652 0.375-0.4375 0.58108-0.94633 0.25883-2.1689-0.6875-2.75-0.37143-0.21672-0.31413-0.77015 0.0937-0.90625 0.0208-1e-3 0.0417-1e-3 0.0625 0 0.0327-7e-3 0.0661-0.0111 0.0996-0.0117z" color="#bebebe" enable-background="accumulate"/>
</g>
</svg>
