<svg width="16" height="16" enable-background="new" version="1.1" xmlns="http://www.w3.org/2000/svg" xmlns:osb="http://www.openswatchbook.org/uri/2009/osb">
<title>Pop Symbolic Icon Theme</title>
<path d="m7.9998 0.99945c-3.866 0-7 3.134-7 7s3.134 7 7 7 7-3.134 7-7-3.134-7-7-7z" color="#bebebe" enable-background="accumulate" fill="#ff9800"/>
<g fill="#4c5263">
<path d="m4.9998 5.0034c0.55407 0 1 0.44945 1 1 0 0.55064-0.44593 1-1 1-0.55424 0-1-0.44936-1-1 0-0.55055 0.44576-1 1-1z" color="#bebebe" enable-background="accumulate"/>
<path d="m11 5.0034c0.55415 0 1 0.44945 1 1 0 0.55064-0.44585 1-1 1-0.55407 0-1-0.44936-1-1 0-0.55055 0.44593-1 1-1z" color="#bebebe" enable-background="accumulate"/>
<path d="m5.1736 9.8295c0.74922 0.75042 1.7658 1.1728 2.8262 1.1738 1.0604-1e-3 2.077-0.42341 2.8262-1.1738l0.70703 0.70703c-0.93673 0.93797-2.2076 1.4658-3.5332 1.4668-1.3256-1e-3 -2.5965-0.52883-3.5332-1.4668z" color="#bebebe" enable-background="accumulate"/>
</g>
</svg>
