<svg width="16" height="16" enable-background="new" version="1.1" xmlns="http://www.w3.org/2000/svg" xmlns:osb="http://www.openswatchbook.org/uri/2009/osb">
<title>Pop Symbolic Icon Theme</title>
<path d="m7.9998 1c3.866 0 7 3.134 7 7s-3.134 7-7 7-7-3.134-7-7 3.134-7 7-7z" color="#bebebe" enable-background="accumulate" fill="#ff9800"/>
<g fill="#4c5263">
<path d="m5.5311 4c-0.73437 0-1.4688 0.44603-1.5312 1.3125-0.125 1.7329 1.5-0.33848 3 0 0-0.86647-0.73438-1.3125-1.4688-1.3125z" color="#bebebe" enable-background="accumulate"/>
<path d="m10.469 4c-0.73437 0-1.4688 0.44603-1.4688 1.3125 1.5-0.33848 3.125 1.7329 3 0-0.0625-0.86647-0.79688-1.3125-1.5312-1.3125z" color="#bebebe" enable-background="accumulate"/>
<path d="m7.9998 7c-1.3807 0-2.5 1.3432-2.5 3s1.1193 3 2.5 3 2.5-1.3432 2.5-3-1.1193-3-2.5-3z" color="#bebebe" enable-background="accumulate"/>
</g>
</svg>
