<svg width="16" height="16" enable-background="new" version="1.1" xmlns="http://www.w3.org/2000/svg" xmlns:osb="http://www.openswatchbook.org/uri/2009/osb">
<title>Pop Symbolic Icon Theme</title>
<path d="m7.9998 0.99944c-3.866 0-7 3.134-7 7s3.134 7 7 7 7-3.134 7-7-3.134-7-7-7z" color="#bebebe" enable-background="accumulate" fill="#ff9800"/>
<g fill="#4c5263">
<path d="m4.9998 5.0034c0.55407 0 1 0.44945 1 1 0 0.55064-0.44593 1-1 1-0.55424 0-1-0.44936-1-1 0-0.55055 0.44576-1 1-1z" color="#bebebe" enable-background="accumulate"/>
<path d="m11 5.0034c0.55415 0 1 0.44945 1 1 0 0.55064-0.44585 1-1 1-0.55407 0-1-0.44936-1-1 0-0.55055 0.44593-1 1-1z" color="#bebebe" enable-background="accumulate"/>
<path d="m11.687 9.5307c0.21054-0.01 0.6444 0.0372 0.84375 0.40625 0.2659 0.4922-0.34375 1.125-0.34375 1.125s-4.947 1.355-4.9688 1.3438c-0.3863-0.1995-0.6263-0.6356-0.1875-1.0625 0.03-0.01 4.5308-1.7582 4.5312-1.7812 0-6e-3 0.0548-0.0279 0.125-0.0312z" color="#bebebe" enable-background="accumulate"/>
</g>
</svg>
