<svg width="16" height="16" enable-background="new" version="1.1" xmlns="http://www.w3.org/2000/svg" xmlns:osb="http://www.openswatchbook.org/uri/2009/osb">
<title>Pop Symbolic Icon Theme</title>
<defs>
<filter color-interpolation-filters="sRGB">
<feBlend in2="BackgroundImage" mode="darken"/>
</filter>
</defs>
<path d="m7.9998 0.99945c-3.866 0-7 3.134-7 7s3.134 7 7 7 7-3.134 7-7-3.134-7-7-7z" color="#bebebe" enable-background="accumulate" fill="#ff9800"/>
<g fill="#4c5263">
<path d="m3.031 6.3744c0.0421-0.0152 0.06-6e-3 0.0625 0 4e-3 0.0221 3.8248 0.5625 3.8438 0.5625 0.3375 0.2967 0.2544 0.7707 0.0625 1.0625-2e-3 3e-3 -0.41685 8.4e-4 -0.75 0v4e-3h-0.25c0 0.55064-0.44593 1-1 1-0.55424 0-1-0.44936-1-1h-0.25v-4e-3c-0.33366-1.4e-4 -0.75 0-0.75 0s-0.47425-0.458-0.40625-1c0.0506-0.40635 0.31129-0.57944 0.4375-0.625z" color="#bebebe" enable-background="accumulate"/>
<path d="m12.906 6.3744c0.01-0.023 0.4323 0.0832 0.5 0.625 0.068 0.542-0.40625 1-0.40625 1s-0.41634-1.4e-4 -0.75 0v4e-3h-0.25c0 0.55064-0.44585 1-1 1-0.55407 0-1-0.44936-1-1h-0.25v-4e-3c-0.33321 8.4e-4 -0.74796 3e-3 -0.75 0-0.192-0.2918-0.2741-0.7658 0.0625-1.0625 0.019 0 3.8394-0.5404 3.8438-0.5625z" color="#bebebe" enable-background="accumulate"/>
<path d="m6.4998 11.999h3c0.277 0 0.5 0.22429 0.5 0.5s-0.223 0.5-0.5 0.5h-3c-0.277 0-0.5-0.22429-0.5-0.5s0.223-0.5 0.5-0.5z" color="#bebebe" enable-background="accumulate"/>
</g>
</svg>
