<svg width="16" height="16" enable-background="new" version="1.1" xmlns="http://www.w3.org/2000/svg" xmlns:osb="http://www.openswatchbook.org/uri/2009/osb">
<title>Pop Symbolic Icon Theme</title>
<defs>
<filter color-interpolation-filters="sRGB">
<feBlend in2="BackgroundImage" mode="darken"/>
</filter>
</defs>
<path d="m2.0936 4.2494c-0.69214 1.0857-1.0938 2.367-1.0938 3.75 0 3.866 3.134 7 7 7s7-3.134 7-7c0-1.383-0.40161-2.6643-1.0938-3.75-0.30705 0.1072-0.61945 0.20124-0.96875 0.28125-1.3374 0.30637-3.0448 0.46875-4.9375 0.46875s-3.6001-0.16238-4.9375-0.46875c-0.3493-0.08-0.6617-0.17405-0.96875-0.28125z" color="#bebebe" enable-background="accumulate" fill="#ff9800"/>
<g fill="#4c5263">
<path d="m4.9998 6.0034c0.55407 0 1 0.44945 1 1 0 0.55064-0.44593 1-1 1-0.55424 0-1-0.44936-1-1 0-0.55055 0.44576-1 1-1z" color="#bebebe" enable-background="accumulate"/>
<path d="m11 6.0034c0.55415 0 1 0.44945 1 1 0 0.55064-0.44585 1-1 1-0.55407 0-1-0.44936-1-1 0-0.55055 0.44593-1 1-1z" color="#bebebe" enable-background="accumulate"/>
<path d="m5.1736 10.83c0.74922 0.75042 1.7658 1.1728 2.8262 1.1738 1.0604-1e-3 2.077-0.42341 2.8262-1.1738l0.70703 0.70703c-0.93673 0.93797-2.2076 1.4658-3.5332 1.4668-1.3256-1e-3 -2.5965-0.52883-3.5332-1.4668z" color="#bebebe" enable-background="accumulate"/>
</g>
<path d="m7.9996-5.5e-4c-1.8312 0-3.4819 0.16768-4.7109 0.44922-0.61453 0.14077-1.1222 0.30468-1.5176 0.51953-0.1977 0.10743-0.37116 0.22834-0.51367 0.38868-0.1425 0.16033-0.25781 0.38326-0.25781 0.63281v0.0215c0 0.24955 0.11531 0.47248 0.25781 0.63281 0.14251 0.16034 0.31597 0.2793 0.51367 0.38672 0.39541 0.21486 0.90305 0.38072 1.5176 0.52149 1.2291 0.28154 2.8797 0.44726 4.7109 0.44726s3.4838-0.16572 4.7129-0.44726c0.61453-0.14077 1.1222-0.30663 1.5176-0.52149 0.1977-0.10742 0.36921-0.22638 0.51172-0.38672 0.1425-0.16033 0.25781-0.38326 0.25781-0.63281v-0.0215c0-0.24955-0.11531-0.47248-0.25781-0.63281-0.14251-0.16034-0.31402-0.28125-0.51172-0.38868-0.3954-0.21485-0.90305-0.37876-1.5176-0.51953-1.2291-0.28154-2.8816-0.44922-4.7129-0.44922zm0 1c1.7698 0 3.3676 0.16712 4.4883 0.42383 0.56035 0.12836 1.003 0.28217 1.2637 0.42383 0.11447 0.0622 0.17536 0.11571 0.21289 0.15234-0.0374 0.0366-0.098 0.0899-0.21289 0.15235-0.26069 0.14165-0.70332 0.29742-1.2637 0.42578-1.1207 0.25671-2.7185 0.42187-4.4883 0.42187s-3.3676-0.16516-4.4883-0.42187c-0.56035-0.12836-1.003-0.28413-1.2637-0.42578-0.1149-0.0624-0.17553-0.11575-0.21289-0.15235 0.0375-0.0366 0.0984-0.0901 0.21289-0.15234 0.26069-0.14166 0.70332-0.29547 1.2637-0.42383 1.1207-0.25671 2.7185-0.42383 4.4883-0.42383zm-6 0.99024c0 0.0136 4e-3 1e-3 2e-3 0.01 3e-3 8e-3 -2e-3 -4e-3 -2e-3 0.0117zm12 0v0.0215c0-0.0162-5e-3 -3e-3 -2e-3 -0.0117-2e-3 -8e-3 2e-3 4e-3 2e-3 -0.01z" color="#000000" color-rendering="auto" dominant-baseline="auto" enable-background="accumulate" fill="#ffeb3b" image-rendering="auto" shape-rendering="auto" solid-color="#000000" style="font-feature-settings:normal;font-variant-alternates:normal;font-variant-caps:normal;font-variant-ligatures:normal;font-variant-numeric:normal;font-variant-position:normal;isolation:auto;mix-blend-mode:normal;shape-padding:0;text-decoration-color:#000000;text-decoration-line:none;text-decoration-style:solid;text-indent:0;text-orientation:mixed;text-transform:none;white-space:normal"/>
</svg>
