<svg width="16" height="16" enable-background="new" version="1.1" xmlns="http://www.w3.org/2000/svg" xmlns:osb="http://www.openswatchbook.org/uri/2009/osb">
<title>Pop Symbolic Icon Theme</title>
<defs>
<filter color-interpolation-filters="sRGB">
<feBlend in2="BackgroundImage" mode="darken"/>
</filter>
</defs>
<path d="m8 0.99945c-3.866 0-7 3.134-7 7s3.134 7 7 7 7-3.134 7-7-3.134-7-7-7z" color="#bebebe" enable-background="accumulate" fill="#ff9800"/>
<g fill="#4c5263">
<path d="m5 5.0034c0.55407 0 1 0.44945 1 1 0 0.55064-0.44593 1-1 1-0.55424 0-1-0.44936-1-1 0-0.55055 0.44576-1 1-1z" color="#bebebe" enable-background="accumulate"/>
<path d="m11 5.0034c0.55415 0 1 0.44945 1 1 0 0.55064-0.44585 1-1 1-0.55407 0-1-0.44936-1-1 0-0.55055 0.44593-1 1-1z" color="#bebebe" enable-background="accumulate"/>
<path d="m5.1739 9.8295c0.74922 0.75042 1.7658 1.1728 2.8262 1.1738 1.0604-1e-3 2.077-0.42341 2.8262-1.1738l0.70703 0.70703c-0.44442 0.44501-0.96819 0.7892-1.5332 1.0371v0.67578c0 0.9272-0.669 1.6875-1.5 1.6875-0.8313 0-1.5-0.7603-1.5-1.6875v-0.34961c-0.9529-0.1954-1.8356-0.66471-2.5332-1.3633z" color="#bebebe" enable-background="accumulate"/>
<path d="m9.7422 11.673c-0.23368 0.0874-0.46978 0.16704-0.71485 0.21875 0.24444-0.0533 0.48142-0.13051 0.71485-0.21875z" color="#bebebe" enable-background="accumulate"/>
<path d="m7.0723 11.912c0.30387 0.0579 0.61406 0.0915 0.92773 0.0918-0.31356-2.9e-4 -0.624-0.0341-0.92773-0.0918z" color="#bebebe" enable-background="accumulate"/>
<path d="m8 12.003c0.2983-2.3e-4 0.59215-0.0339 0.88086-0.0879-0.28905 0.0521-0.58312 0.0877-0.88086 0.0879z" color="#bebebe" enable-background="accumulate"/>
</g>
</svg>
