<svg width="16" height="16" enable-background="new" version="1.1" xmlns="http://www.w3.org/2000/svg" xmlns:osb="http://www.openswatchbook.org/uri/2009/osb">
<title>Pop Symbolic Icon Theme</title>
<defs>
<filter color-interpolation-filters="sRGB">
<feBlend in2="BackgroundImage" mode="darken"/>
</filter>
</defs>
<g>
<path d="m13.969 11.656 0.0312-1.4102c0-1.5064-0.7062-2.25-2.0625-2.25h-0.84375c-1.3563 0-2.0938 0.7435-2.0938 2.25v0.75h-2v-0.75c-0.0181-1.5064-0.79985-2.25-2.1562-2.25h-0.84375c-1.3561 0-1.989 0.7436-2 2.25l-0.0312 1.3164c-0.6179-1.0434-0.96875-2.2621-0.96875-3.5625 0-3.866 3.134-7 7-7s7 3.134 7 7c0 1.3417-0.37671 2.5913-1.0312 3.6562z" color="#bebebe" enable-background="accumulate" fill="#4c5263"/>
<path d="m8 0.99945c-2.3756 0-4.4845 1.1905-5.75 3h11.5c-1.2655-1.8095-3.3744-3-5.75-3z" color="#bebebe" enable-background="accumulate" fill="#ff9800"/>
<path d="m13.969 4.3432 0.0312 1.4102c0 1.5064-0.7062 2.25-2.0625 2.25h-0.84375c-1.3563 0-2.0938-0.7435-2.0938-2.25v-0.75h-2v0.75c-0.0181 1.5064-0.79985 2.25-2.1562 2.25h-0.84375c-1.3561 0-1.989-0.7436-2-2.25l-0.0312-1.3164c-0.6179 1.0434-0.96875 2.2621-0.96875 3.5625 0 3.866 3.134 7 7 7s7-3.134 7-7c0-1.3417-0.37671-2.5913-1.0312-3.6562z" color="#bebebe" enable-background="accumulate" fill="#ff9800"/>
<path d="m5.1739 9.8295c0.74922 0.75042 1.7658 1.1728 2.8262 1.1738 1.0604-1e-3 2.077-0.42341 2.8262-1.1738l0.70703 0.70703c-0.93673 0.93797-2.2076 1.4658-3.5332 1.4668-1.3256-1e-3 -2.5965-0.52883-3.5332-1.4668z" color="#bebebe" enable-background="accumulate" fill="#4c5263"/>
</g>
</svg>
