<svg width="16" height="16" enable-background="new" version="1.1" xmlns="http://www.w3.org/2000/svg">
<title>Pop Symbolic Icon Theme</title>
<path d="m7.9998 0.99945c-3.866 0-7 3.134-7 7s3.134 7 7 7 7-3.134 7-7-3.134-7-7-7z" color="#bebebe" enable-background="accumulate" fill="#ff9800"/>
<g fill="#4c5263">
<path d="m4.9998 5.0034c0.55407 0 1 0.44945 1 1 0 0.55064-0.44593 1-1 1-0.55424 0-1-0.44936-1-1 0-0.55055 0.44576-1 1-1z" color="#bebebe" enable-background="accumulate"/>
<path d="m11 5.0034c0.55415 0 1 0.44945 1 1 0 0.55064-0.44585 1-1 1-0.55407 0-1-0.44936-1-1 0-0.55055 0.44593-1 1-1z" color="#bebebe" enable-background="accumulate"/>
<path d="m3.9998 7.4994c0.82843 0 1.5 0.67157 1.5 1.5s-0.67157 1.5-1.5 1.5-1.5-0.67157-1.5-1.5 0.67157-1.5 1.5-1.5z" color="#bebebe" enable-background="accumulate"/>
<path d="m12 7.4994c0.82843 0 1.5 0.67157 1.5 1.5s-0.67157 1.5-1.5 1.5-1.5-0.67157-1.5-1.5 0.67157-1.5 1.5-1.5z" color="#bebebe" enable-background="accumulate"/>
<path d="m6.4998 11.999h3c0.277 0 0.5 0.18776 0.5 0.4375v0.125c0 0.24974-0.223 0.4375-0.5 0.4375h-3c-0.277 0-0.5-0.18776-0.5-0.4375v-0.125c0-0.24974 0.223-0.4375 0.5-0.4375z" color="#bebebe" enable-background="accumulate"/>
</g>
<path d="m4 7.5c-0.82843 0-1.5 0.67157-1.5 1.5s0.67157 1.5 1.5 1.5 1.5-0.67157 1.5-1.5-0.67157-1.5-1.5-1.5z" color="#bebebe" enable-background="accumulate" fill="#e91e63"/>
<path d="m12 7.5c-0.82843 0-1.5 0.67157-1.5 1.5s0.67157 1.5 1.5 1.5 1.5-0.67157 1.5-1.5-0.67157-1.5-1.5-1.5z" color="#bebebe" enable-background="accumulate" fill="#e91e63"/>
</svg>
