<svg width="16" height="16" enable-background="new" version="1.1" xmlns="http://www.w3.org/2000/svg" xmlns:osb="http://www.openswatchbook.org/uri/2009/osb">
<title>Pop Symbolic Icon Theme</title>
<defs>
<filter color-interpolation-filters="sRGB">
<feBlend in2="BackgroundImage" mode="darken"/>
</filter>
</defs>
<path d="m8 0.99945c-3.866 0-7 3.134-7 7s3.134 7 7 7 7-3.134 7-7-3.134-7-7-7z" color="#bebebe" enable-background="accumulate" fill="#ff9800"/>
<g fill="#4c5263">
<path d="m5 5.0034c0.55407 0 1 0.44945 1 1 0 0.55064-0.44593 1-1 1-0.55424 0-1-0.44936-1-1 0-0.55055 0.44576-1 1-1z" color="#bebebe" enable-background="accumulate"/>
<path d="m11 5.0034c0.55415 0 1 0.44945 1 1 0 0.55064-0.44585 1-1 1-0.55407 0-1-0.44936-1-1 0-0.55055 0.44593-1 1-1z" color="#bebebe" enable-background="accumulate"/>
<path d="m6.0625 9.4994c0.755-0.1008 1.6036 0.19715 2.375 0.96875 0.5861 0.5855 0.9858 0.64875 1.375 0.59375 0.389-0.0549 0.81685-0.2948 1.2188-0.625 0.61464-0.79126 1.6422 0.45043 0.75 0.90625-0.4692 0.3853-1.0575 0.79975-1.8125 0.90625-0.7548 0.1067-1.6306-0.1618-2.4062-0.9375-0.5901-0.5906-0.96425-0.676-1.3438-0.625-0.3795 0.0507-0.8294 0.30655-1.25 0.65625-0.61464 0.79126-1.6422-0.45043-0.75-0.90625 0.4882-0.406 1.0888-0.8368 1.8438-0.9375z" color="#bebebe" enable-background="accumulate"/>
</g>
</svg>
