<svg width="16" height="16" enable-background="new" version="1.1" xmlns="http://www.w3.org/2000/svg" xmlns:osb="http://www.openswatchbook.org/uri/2009/osb">
<title>Pop Symbolic Icon Theme</title>
<defs>
<filter color-interpolation-filters="sRGB">
<feBlend in2="BackgroundImage" mode="darken"/>
</filter>
</defs>
<path d="m8 0.99946c-3.866 0-7 3.134-7 7s3.134 7 7 7 7-3.134 7-7-3.134-7-7-7z" color="#bebebe" enable-background="accumulate" fill="#ff9800"/>
<g fill="#4c5263">
<path d="m5 5.0034c0.55407 0 1 0.44945 1 1 0 0.55064-0.44593 1-1 1-0.55424 0-1-0.44936-1-1 0-0.55055 0.44576-1 1-1z" color="#bebebe" enable-background="accumulate"/>
<path d="m11 5.0034c0.55415 0 1 0.44945 1 1 0 0.55064-0.44585 1-1 1-0.55407 0-1-0.44936-1-1 0-0.55055 0.44593-1 1-1z" color="#bebebe" enable-background="accumulate"/>
<path d="m4 8.9995 4 1 4-1c0.0206 0.14762 0.0192 0.27798 0 0.40625-0.0576 0.38481-0.27337 0.6646-0.65625 0.75l-1.3438 0.34375 1.3125 0.3125c0.53601 0.14363 0.6606 0.49922 0.6875 0.84375 9e-3 0.11484 0 0.23785 0 0.34375l-4-1-4 1c-0.0655-0.63125 0.0484-0.97818 0.53125-1.125l1.4688-0.375-1.5-0.34375c-0.4745-0.12796-0.5831-0.67248-0.5-1.1562z" color="#bebebe" enable-background="accumulate"/>
</g>
</svg>
