<svg width="16" height="16" enable-background="new" version="1.1" xmlns="http://www.w3.org/2000/svg">
<title>Pop Symbolic Icon Theme</title>
<path d="m8 0.99945c-3.866 0-7 3.134-7 7s3.134 7 7 7 7-3.134 7-7-3.134-7-7-7z" color="#bebebe" enable-background="accumulate" fill="#ff9800"/>
<path d="m5 5.0034c0.55407 0 1 0.44945 1 1 0 0.55064-0.44593 1-1 1-0.55424 0-1-0.44936-1-1 0-0.55055 0.44576-1 1-1z" color="#bebebe" enable-background="accumulate" fill="#4c5263"/>
<path d="m11 5.0034c0.55415 0 1 0.44945 1 1 0 0.55064-0.44585 1-1 1-0.55407 0-1-0.44936-1-1 0-0.55055 0.44593-1 1-1z" color="#bebebe" enable-background="accumulate" fill="#4c5263"/>
<path d="m12.104 6.8998 0.20507 0.20704 0.84375 0.84375c0.2719 0.2719 0.45118 0.63637 0.45118 1.0488 0 0.82487-0.67512 1.5-1.5 1.5-0.82487 0-1.5-0.67513-1.5-1.5 0-0.41243 0.17732-0.77692 0.44921-1.0488l0.84375-0.84375z" color="#bebebe" enable-background="accumulate" fill="#03a9f4"/>
<path d="m8 10.003c1.3256 1e-3 2.5965 0.52883 3.5332 1.4668l-0.70703 0.70703c-0.74922-0.75042-1.7658-1.1726-2.8262-1.1738-1.0604 1e-3 -2.077 0.42341-2.8262 1.1738l-0.70703-0.70703c0.93673-0.93797 2.2076-1.4656 3.5332-1.4668z" color="#bebebe" enable-background="accumulate" fill="#4c5263"/>
</svg>
