<svg width="20" height="20" version="1.1" viewBox="0 0 20 20" xmlns="http://www.w3.org/2000/svg">
<g transform="translate(1)">
<path d="m9 2-7 8 7 8zm-5 8v-3c0-0.554-0.446-1-1-1s-1 0.446-1 1v6c0 0.554 0.446 1 1 1s1-0.446 1-1z"/>
<path d="m15 3-1.7129 1.0293c0.93437 1.5555 1.7131 4.1562 1.7129 5.9707 1.8e-4 1.8145-0.77852 4.4152-1.7129 5.9707l1.7129 1.0293c1.1217-1.8662 1.9996-4.8227 2-7-4e-4 -2.1773-0.87834-5.1338-2-7z"/>
<path d="m11.75 4.5-1.7148 1.0293c0.6543 1.0888 0.96483 3.2004 0.96484 4.4707-1e-5 1.2703-0.31054 3.3819-0.96484 4.4707l1.7148 1.0293c0.84091-1.3997 1.25-3.8671 1.25-5.5s-0.40909-4.1003-1.25-5.5z"/>
</g>
</svg>
