<svg width="20" height="20" version="1.1" viewBox="0 0 20 20" xmlns="http://www.w3.org/2000/svg">
<path d="m10 2a2 2 0 0 0-2 2 2 2 0 0 0 0 2e-3h-1.0195c-1.0953 0.0107-1.9805 0.90013-1.9805 1.998v9c0 1.1046 0.89543 2 2 2h6c1.1046 0 2-0.89543 2-2v-9c0-1.0979-0.88515-1.9873-1.9805-1.998h-1.0195a2 2 0 0 0 0-2e-3 2 2 0 0 0-2-2zm0 5.002c1.1046 0 2 0.89543 2 2s-0.89543 2-2 2v1h-1v-2h1c0.55229 0 1-0.44772 1-1s-0.44771-1-1-1c-0.55228 0-1 0.44772-1 1h-1c0-1.1046 0.89543-2 2-2zm-1 6h1v1h-1z" fill="#fff"/>
</svg>
