<svg width="20" height="20" version="1.1" viewBox="0 0 20 20" xmlns="http://www.w3.org/2000/svg">
<path d="m10 1.998c-0.0124 5.4e-4 -0.0248 1e-3 -0.0371 2e-3 -0.1181 2e-3 -0.23346 0.0133-0.3457 0.0352-4e-3 8.7e-4 -9e-3 1e-3 -0.0137 2e-3 -0.0131 3e-3 -0.0261 6e-3 -0.0391 0.01-0.0953 0.0212-0.18771 0.0516-0.27734 0.0859-0.0422 0.0155-0.0839 0.0324-0.125 0.0508-0.0804 0.0372-0.15822 0.0798-0.23242 0.12695-0.0197 0.012-0.0393 0.0244-0.0586 0.0371-8e-3 6e-3 -0.0154 0.0119-0.0234 0.0176-0.0816 0.0577-0.15852 0.12041-0.23047 0.18945-0.0145 0.0141-0.0289 0.0284-0.043 0.043-0.0743 0.0758-0.14154 0.15734-0.20313 0.24414-0.014 0.0193-0.0277 0.0388-0.041 0.0586-0.0553 0.0841-0.10423 0.17331-0.14649 0.26563-0.0138 0.0303-0.0268 0.0609-0.0391 0.0918-0.0392 0.0985-0.0724 0.20112-0.0957 0.30664-3e-3 0.0169-7e-3 0.0338-0.01 0.0508-0.0238 0.12308-0.0389 0.24889-0.0391 0.3789v6e-3h-1.0391c-1.0857 0.0208-1.9606 0.90437-1.9606 1.9955v4.002l2 2.002 3-5v2l5 0.9961v-4c0-1.0912-0.87488-1.9747-1.9609-1.9961h-1.0391v-6e-3c-1.3e-4 -0.13737-0.0145-0.27082-0.041-0.40039-1.2e-4 -6.1e-4 1.3e-4 -1e-3 0-2e-3 -0.0234-0.11403-0.0596-0.22403-0.10156-0.33008-0.0117-0.0296-0.024-0.0589-0.0371-0.0879-0.0405-0.0896-0.0879-0.17585-0.14062-0.25781-0.01-0.0158-0.0193-0.0314-0.0293-0.0469-5e-3 -7e-3 -9e-3 -0.0131-0.0137-0.0195-0.0592-0.0845-0.12599-0.16213-0.19727-0.23633-0.0128-0.0145-0.0258-0.0288-0.0391-0.043l-8e-3 -8e-3c-0.0725-0.0705-0.15184-0.1325-0.23438-0.1914-0.0218-0.0161-0.0439-0.0317-0.0664-0.0469-0.0794-0.0519-0.16331-0.0983-0.25-0.13867-0.0366-0.0174-0.0737-0.0337-0.11133-0.0488-2e-3 -7.4e-4 -4e-3 -1e-3 -6e-3 -2e-3 -0.0886-0.0345-0.18114-0.0623-0.27539-0.084-0.0266-6e-3 -0.0533-0.0123-0.0801-0.0176-0.1093-0.0205-0.22115-0.0313-0.33594-0.0332-0.0111-7.4e-4 -0.0221-1e-3 -0.0332-2e-3z" fill="#fff" opacity=".3"/>
<path d="m6.9609 8c-1.0861 0.0214-1.9609 0.90493-1.9609 1.9961v5.002c0 1.1046 0.89543 2 2 2h6a2 2 0 0 0 2-2v-5.002c0-1.0912-0.87488-1.9747-1.9609-1.9961h-3.0391v2h3l-3 5v-3h-3l2.4062-4z" fill="#fff"/>
</svg>
