<svg width="20" height="20" version="1.1" viewBox="0 0 20 20" xmlns="http://www.w3.org/2000/svg">
<path d="m10 1.998c-0.13807 0-0.27215 0.0144-0.40234 0.041-0.11877 0.0243-0.23368 0.0611-0.34375 0.10546a2 2 0 0 0-0.0625 0.0254c-0.10013 0.0443-0.19643 0.0968-0.28711 0.15624a2 2 0 0 0-0.0312 0.0215c-4.2e-4 2.8e-4 -2e-3 -2.9e-4 -2e-3 0-0.0975 0.0667-0.18746 0.14209-0.27148 0.22461-6e-3 6e-3 -0.0134 0.0113-0.0195 0.0176-0.0816 0.0823-0.15428 0.17215-0.2207 0.26758a2 2 0 0 0-0.0254 0.0371c-0.0588 0.0887-0.11002 0.1834-0.15429 0.28125a2 2 0 0 0-0.0332 0.0762c-0.0413 0.10251-0.0737 0.2102-0.0976 0.32031a2 2 0 0 0-0.01 0.041c-0.0243 0.12487-0.0389 0.25272-0.0389 0.38475a2 2 0 0 0 0 2e-3h-1.0195c-1.0953 0.0107-1.9805 0.90013-1.9805 1.998v9.002h5v-3h-3l3-5v3h3l-3 5h5a2 2 0 0 0 0-2e-3v-9c0-1.0979-0.88515-1.9873-1.9805-1.998h-1.0196v-0.00195c0-0.13807-0.0144-0.27215-0.041-0.40234-0.0243-0.11877-0.0611-0.23368-0.10546-0.34375a2 2 0 0 0-0.0254-0.0625c-0.0443-0.10013-0.0968-0.19643-0.15624-0.28711a2 2 0 0 0-0.0215-0.0312c-2.8e-4 -4.2e-4 2.9e-4 -2e-3 0-2e-3 -0.0667-0.0975-0.14209-0.18746-0.22461-0.27148a2 2 0 0 0-0.0176-0.0195c-0.0823-0.0816-0.17215-0.15428-0.26758-0.2207a2 2 0 0 0-0.0371-0.0254c-0.0887-0.0588-0.1834-0.11002-0.28125-0.15429a2 2 0 0 0-0.0762-0.0332c-0.10251-0.0413-0.2102-0.0737-0.32031-0.0976a2 2 0 0 0-0.041-0.01c-0.12487-0.02428-0.25272-0.03893-0.38475-0.03893z" enable-background="new" fill="#fff" opacity=".3"/>
<path d="m6.9804 12c-1.0954 0.0107-1.9805 0.90018-1.9805 1.998v1c0 1.1046 0.89543 2 2 2h6a2 2 0 0 0 0.19922-0.01 2 2 0 0 0 1.8008-1.99v-1c0-1.0979-0.88515-1.9873-1.9805-1.998h-1.2188l-1.8008 3v-3h-3z" fill="#fff"/>
</svg>
