<svg width="20" height="20" version="1.1" viewBox="0 0 20 20" xmlns="http://www.w3.org/2000/svg">
<path d="m10 1.998c-0.13807 0-0.27215 0.0144-0.40234 0.041-0.11877 0.0243-0.23368 0.0611-0.34375 0.10546-0.021 8e-3 -0.0418 0.0166-0.0625 0.0254-0.10013 0.0443-0.19643 0.0968-0.28711 0.15624-0.0105 7e-3 -0.0209 0.0142-0.0312 0.0215-4.2e-4 2.8e-4 -2e-3 -2.9e-4 -2e-3 0-0.0975 0.0667-0.18746 0.14209-0.27148 0.22461-6e-3 6e-3 -0.0134 0.0113-0.0195 0.0176-0.0816 0.0823-0.15428 0.17215-0.2207 0.26758-9e-3 0.0123-0.0171 0.0246-0.0254 0.0371-0.0588 0.0887-0.11002 0.1834-0.15429 0.28125-0.0116 0.0252-0.0227 0.0506-0.0332 0.0762-0.0413 0.10251-0.0737 0.2102-0.0976 0.32031-3e-3 0.0136-7e-3 0.0273-0.01 0.041-0.0243 0.12487-0.0389 0.25272-0.0389 0.38475v2e-3h-1.0195c-1.0953 0.0107-1.9805 0.90013-1.9805 1.998v7.002l2-1 3-5v3h3.0056l1.9943 1.998v-6c0-1.0979-0.88515-1.9873-1.9805-1.998h-1.0195v-0.00195c0-0.13807-0.0144-0.27215-0.041-0.40234-0.0243-0.11877-0.0611-0.23368-0.10546-0.34375-8e-3 -0.021-0.0166-0.0418-0.0254-0.0625-0.0443-0.10013-0.0968-0.19643-0.15624-0.28711-7e-3 -0.0105-0.0142-0.0209-0.0215-0.0312-2.8e-4 -4.2e-4 2.9e-4 -2e-3 0-2e-3 -0.0667-0.0975-0.14209-0.18746-0.22461-0.27148-6e-3 -7e-3 -0.0117-0.0131-0.0176-0.0195-0.0823-0.0816-0.17215-0.15428-0.26758-0.2207-0.0123-9e-3 -0.0246-0.0171-0.0371-0.0254-0.0887-0.0588-0.1834-0.11002-0.28125-0.15429-0.0252-0.0116-0.0506-0.0227-0.0762-0.0332-0.10251-0.0413-0.2102-0.0737-0.32031-0.0976-0.0136-3e-3 -0.0273-7e-3 -0.041-0.01-0.12487-0.0243-0.25272-0.0389-0.38475-0.0389z" opacity=".3"/>
<path d="m6.9808 10c-1.0954 0.0107-1.9805 0.90018-1.9805 1.998v3.002c1e-3 1.1037 0.89609 1.998 2 1.998h6c0.0665 6e-5 0.13302-3e-3 0.19922-0.01 1.0224-0.10217 1.8009-0.96256 1.8008-1.99v-3c0-1.0979-0.88515-1.9873-1.9805-1.998h-0.0199l-3 5v-3h-3l1.2031-2z"/>
</svg>
