<svg width="20" height="20" version="1.1" viewBox="0 0 20 20" xmlns="http://www.w3.org/2000/svg">
<defs>
<filter color-interpolation-filters="sRGB">
<feBlend in2="BackgroundImage" mode="darken"/>
</filter>
</defs>
<path d="m9.5 2c-3.047 0-5.5 2.676-5.5 6v4c0 3.324 2.453 6 5.5 6s5.5-2.676 5.5-6v-4c0-3.324-2.453-6-5.5-6zm-0.0391 2.0625a0.50005 0.50005 0 0 1 0.36133 0.14648l3 3a0.50005 0.50005 0 0 1-0.041 0.74415l-2.6367 2.1094 2.6367 2.1094a0.50005 0.50005 0 0 1 0.041 0.74414l-3 3a0.50005 0.50005 0 0 1-0.8535-0.35352v-4.5586l-2.1875 1.75a0.50024 0.50024 0 0 1-0.625-0.78125l2.3867-1.9102-2.3867-1.9102a0.50005 0.50005 0 1 1 0.625-0.77929l2.1875 1.75v-4.5606a0.50005 0.50005 0 0 1 0.49219-0.5zm0.50781 1.707v3.1524l1.752-1.4004zm0 5.4336v3.1523l1.752-1.752z" enable-background="new"/>
</svg>
