<svg width="20" height="20" version="1.1" viewBox="0 0 20 20" xmlns="http://www.w3.org/2000/svg">
<defs>
<filter color-interpolation-filters="sRGB">
<feBlend in2="BackgroundImage" mode="darken"/>
</filter>
</defs>
<path d="m9.5312 2c-1.2676 0-2.4163 0.48458-3.3438 1.2656l2.8125 2.8125v-1.5156c-1e-5 -0.27311 0.21911-0.49571 0.49219-0.5 0.1353-2e-3 0.26567 0.0508 0.36133 0.14648l3 3c0.21085 0.2107 0.19169 0.55791-0.041 0.74414l-1.0762 0.86133 3.2891 3.2891c5.3e-4 -0.0349 6e-3 -0.0685 6e-3 -0.10352v-4c0-3.324-2.453-6-5.5-6zm-4.3144 2.2754c-0.74171 1.0223-1.1856 2.3137-1.1856 3.7246v4c0 3.324 2.453 6 5.5 6 2.461 0 4.5337-1.7472 5.2402-4.1699l-4.1367-4.1348-0.45899 0.36719 2.6367 2.1094c0.23273 0.18623 0.25189 0.53344 0.041 0.74414l-3 3c-0.315 0.31479-0.85335 0.0918-0.85352-0.35352v-4.5586l-2.1875 1.75c-0.52083 0.41667-1.1458-0.36458-0.625-0.78125l2.3867-1.9102-2.166-2.0625c-0.56586-0.41101-0.11976-1.0901 0.4043-0.62695l2.1875 1.75v-1.0645zm4.7832 1.4941v1.3086l1.0234 1.0234 0.72851-0.58008zm0 5.4336v3.1524l1.752-1.752z" enable-background="new" fill="#fff" opacity=".5"/>
<rect transform="rotate(45)" x="4.8172" y="-.66572" width="17.987" height="1.9944" rx=".99718" ry=".99718" enable-background="new" fill="#fff"/>
</svg>
