<svg width="20" height="20" version="1.1" viewBox="0 0 20 20" xmlns="http://www.w3.org/2000/svg">
<path d="m 13,13 v 1 c 0,0.27614 0.10029,0.53779 0.28125,0.71875 L 14.0625,15.5 13.28125,16.28125 C 13.10029,16.46221 13,16.72386 13,17 v 1 h 1 c 0.27614,0 0.53779,-0.10029 0.71875,-0.28125 L 15.5,16.9375 16.28125,17.71875 C 16.46221,17.89971 16.72386,18 17,18 h 1 v -1 c 0,-0.27614 -0.10029,-0.53779 -0.28125,-0.71875 L 16.9375,15.5 17.71875,14.71875 C 17.89971,14.53779 18,14.27614 18,14 v -1 h -1 c -0.27614,0 -0.53779,0.10029 -0.71875,0.28125 L 15.5,14.0625 14.71875,13.28125 C 14.53779,13.10029 14.27614,13 14,13 Z" enable-background="new"/>
<path d="m7.9985 6.9967 4.5 5.5 4.5-5.5c-3e-3 4e-3 -1.3333 0-2 0v-3h-5v3z" color="#000000" enable-background="new" opacity=".3"/>
<path d="m11.999 13.997-4.5-5.5-4.5 5.5c3e-3 -4e-3 1.3333 0 2 0v3h5v-3z" color="#000000" enable-background="new" opacity=".3"/>
</svg>
