<svg width="20" height="20" version="1.1" viewBox="0 0 20 20" xmlns="http://www.w3.org/2000/svg">
<path d="m6.5 5.0004c-2.4853 0-4.5 2.0147-4.5 4.5s2.0147 4.5 4.5 4.5c1.9047-3e-3 3.6014-1.2042 4.2363-3l2.262-3e-3 -2e-4 1.004h3l2e-4 -1.0079 1 4e-3 1-2-3.2e-4 -0.99955-7.262 3e-3c-0.6349-1.7958-2.3316-2.9973-4.2363-3zm0 3c0.82843 0 1.5 0.67157 1.5 1.5s-0.67157 1.5-1.5 1.5-1.5-0.67157-1.5-1.5 0.67157-1.5 1.5-1.5z" enable-background="new" fill="#fff" opacity=".3"/>
<path d="m 13,13 v 1 c 0,0.27614 0.10029,0.53779 0.28125,0.71875 L 14.0625,15.5 13.28125,16.28125 C 13.10029,16.46221 13,16.72386 13,17 v 1 h 1 c 0.27614,0 0.53779,-0.10029 0.71875,-0.28125 L 15.5,16.9375 16.28125,17.71875 C 16.46221,17.89971 16.72386,18 17,18 h 1 v -1 c 0,-0.27614 -0.10029,-0.53779 -0.28125,-0.71875 L 16.9375,15.5 17.71875,14.71875 C 17.89971,14.53779 18,14.27614 18,14 v -1 h -1 c -0.27614,0 -0.53779,0.10029 -0.71875,0.28125 L 15.5,14.0625 14.71875,13.28125 C 14.53779,13.10029 14.27614,13 14,13 Z" enable-background="new" fill="#fff"/>
</svg>
