<svg width="20" height="20" version="1.1" viewBox="0 0 20 20" xmlns="http://www.w3.org/2000/svg">
<path d="m9.9999 3.9906c-1.1491 0-2.2962 0.18142-3.4024 0.5293-0.33011 0.10379-0.65726 0.22065-0.97851 0.35547-0.14588 0.0612-0.28791 0.1336-0.43164 0.20117-0.23754 0.11177-0.47226 0.23015-0.70313 0.35937-0.15004 0.0839-0.29842 0.17046-0.44531 0.26172-0.22991 0.14298-0.4544 0.29798-0.67578 0.45899-0.1301 0.0946-0.2618 0.18632-0.38867 0.28711-0.33591 0.267-0.66384 0.54879-0.97461 0.85937l6.5508 7.9316h2e-3c0.37724 0.39311 0.89852 0.61532 1.4434 0.61524 0.54638-9.2e-4 1.0686-0.22534 1.4453-0.6211h4e-3l1.5547-1.8809v-5.3594h4.4316l0.56836-0.68555c-0.25239-0.25223-0.51589-0.48555-0.78516-0.70898-0.0665-0.0553-0.13564-0.10666-0.20312-0.16016-0.21478-0.17008-0.43444-0.3321-0.65821-0.48437-0.0725-0.0494-0.14346-0.10096-0.21679-0.14844-0.60139-0.38903-1.2292-0.719-1.8789-0.98242l-2e-3 -2e-3c-1.3613-0.55152-2.809-0.82617-4.2559-0.82617z" fill="#fff" opacity=".3"/>
<path class="error" d="m13.999 9-1e-5 4 0.25 2h1.5l0.25-2 1e-5 -4zm0 7v2h2v-2z" color="#444444" fill="#4285f4"/>
</svg>
