<svg width="20" height="20" version="1.1" viewBox="0 0 20 20" xmlns="http://www.w3.org/2000/svg">
<g>
<path d="m17 14a1 1 0 0 1-1 1 1 1 0 0 1-1-1 1 1 0 0 1 1-1 1 1 0 0 1 1 1z" enable-background="new"/>
<path d="m14 14a1 1 0 0 1-1 1 1 1 0 0 1-1-1 1 1 0 0 1 1-1 1 1 0 0 1 1 1z" enable-background="new"/>
<path d="m11 14a1 1 0 0 1-1 1 1 1 0 0 1-1-1 1 1 0 0 1 1-1 1 1 0 0 1 1 1z" enable-background="new"/>
<path d="m4 4s-1 1e-5 -1 1v9c0 0.99999 1 1 1 1h2l1 1h1v-2l-1-1h-2v-7h1v3h2v-3h1v3h2v-3h1v3h2v-3h1v6h2v-7c0-0.99999-1-1-1-1z" opacity=".3"/>
</g>
</svg>
