<svg width="16" height="16.035" enable-background="new" version="1.1" xmlns="http://www.w3.org/2000/svg" xmlns:osb="http://www.openswatchbook.org/uri/2009/osb">
<title>Pop Symbolic Icon Theme</title>
<defs>
<filter id="filter7554" color-interpolation-filters="sRGB">
<feBlend in2="BackgroundImage" mode="darken"/>
</filter>
</defs>
<path d="m6 3.0346h5v5.5c0 0.82843-0.67157 1.5-1.5 1.5s-1.5-0.67157-1.5-1.5 0.67157-1.5 1.5-1.5c0.17259 0 0.34568 0.0401 0.5 0.0937v-2.0937h-3v3.5c0 0.82843-0.67157 1.5-1.5 1.5s-1.5-0.67157-1.5-1.5 0.67157-1.5 1.5-1.5c0.17259 0 0.34568 0.0401 0.5 0.0937v-2.0937z" fill="#444" filter="url(#filter7554)"/>
<path d="m3.5 0.03455c-1.9217 0-3.5 1.5783-3.5 3.5v9c0 1.9217 1.5783 3.5 3.5 3.5h8c1.9217 0 3.5-1.5783 3.5-3.5v-9c0-1.9217-1.5783-3.5-3.5-3.5zm0 2h8c0.8483 0 1.5 0.6517 1.5 1.5v6c0 0.831-0.669 1.5-1.5 1.5h-8c-0.831 0-1.5-0.669-1.5-1.5v-6c0-0.8483 0.6517-1.5 1.5-1.5zm0 10a1.5 1.5 0 0 1 1.5 1.5 1.5 1.5 0 0 1-1.5 1.5 1.5 1.5 0 0 1-1.5-1.5 1.5 1.5 0 0 1 1.5-1.5zm4 0a1.5 1.5 0 0 1 1.5 1.5 1.5 1.5 0 0 1-1.5 1.5 1.5 1.5 0 0 1-1.5-1.5 1.5 1.5 0 0 1 1.5-1.5zm4 0a1.5 1.5 0 0 1 1.5 1.5 1.5 1.5 0 0 1-1.5 1.5 1.5 1.5 0 0 1-1.5-1.5 1.5 1.5 0 0 1 1.5-1.5z" color="#000000" color-rendering="auto" dominant-baseline="auto" enable-background="accumulate" fill="#444" filter="url(#filter7554)" image-rendering="auto" shape-rendering="auto" solid-color="#000000" style="font-feature-settings:normal;font-variant-alternates:normal;font-variant-caps:normal;font-variant-ligatures:normal;font-variant-numeric:normal;font-variant-position:normal;isolation:auto;mix-blend-mode:normal;shape-padding:0;text-decoration-color:#000000;text-decoration-line:none;text-decoration-style:solid;text-indent:0;text-orientation:mixed;text-transform:none;white-space:normal"/>
</svg>
