<svg width="16" height="16" enable-background="new" version="1.1" xmlns="http://www.w3.org/2000/svg">
<title>Pop Symbolic Icon Theme</title>
<defs>
<filter id="filter7554" color-interpolation-filters="sRGB">
<feBlend in2="BackgroundImage" mode="darken"/>
</filter>
</defs>
<path d="m3 1.0352c-1 0-1 1-1 1v12s0 1 1 1h10s1 0 1-1v-12s0-1-1-1h-10zm5 2c2.2091 0 4 1.7909 4 4s-1.7909 4-4 4h-4v-4c0-2.2091 1.7909-4 4-4z" fill="#808080" filter="url(#filter7554)"/>
<path d="m8 3c-1.1046 0-2 0.89543-2 2v1c-0.55228 0-1 0.44772-1 1v3c0 0.55228 0.44772 1 1 1h4c0.55228 0 1-0.44772 1-1v-3c0-0.55228-0.44772-1-1-1v-1c0-1.1046-0.89543-2-2-2zm0 1c0.55228 0 1 0.44772 1 1v1h-2v-1c0-0.55228 0.44772-1 1-1z" fill="#808080"/>
</svg>
