<svg width="16.002" height="16.002" enable-background="new" version="1.1" xmlns="http://www.w3.org/2000/svg" xmlns:osb="http://www.openswatchbook.org/uri/2009/osb">
<title>Pop Symbolic Icon Theme</title>
<defs>
<filter id="filter7554" color-interpolation-filters="sRGB">
<feBlend in2="BackgroundImage" mode="darken"/>
</filter>
</defs>
<path d="m2.002 0c-0.41524 0-0.80005 0.12697-1.1191 0.34179-0.21352 0.14375-0.39709 0.32568-0.54102 0.53907v2e-3c-0.21482 0.31909-0.34179 0.7039-0.34179 1.1191v5.998c0 7e-3 2e-3 0.0129 2e-3 0.0195v5.9824c0 1.108 0.892 2 2 2s2-0.892 2-2v-4h8v4c0 1.108 0.892 2 2 2s2-0.892 2-2v-12c0-0.277-0.0553-0.54181-0.15625-0.78125-0.0502-0.119-0.11437-0.23402-0.18555-0.33984-0.0714-0.10551-0.15441-0.2052-0.24414-0.29493-0.3618-0.3618-0.86155-0.58593-1.416-0.58593zm1.5 2.002h1c0.277 0 0.5 0.223 0.5 0.5v1.5h1.5c0.277 0 0.5 0.223 0.5 0.5v1c0 0.277-0.223 0.5-0.5 0.5h-1.5v1.5c0 0.277-0.223 0.5-0.5 0.5h-1c-0.277 0-0.5-0.223-0.5-0.5v-1.5h-1.5c-0.277 0-0.5-0.223-0.5-0.5v-1c0-0.277 0.223-0.5 0.5-0.5h1.5v-1.5c0-0.277 0.223-0.5 0.5-0.5zm8 0h1c0.277 0 0.5 0.223 0.5 0.5v1c0 0.277-0.223 0.5-0.5 0.5h-1c-0.277 0-0.5-0.223-0.5-0.5v-1c0-0.277 0.223-0.5 0.5-0.5zm-2 2h1c0.277 0 0.5 0.223 0.5 0.5v1c0 0.277-0.223 0.5-0.5 0.5h-1c-0.277 0-0.5-0.223-0.5-0.5v-1c0-0.277 0.223-0.5 0.5-0.5zm4 0h1c0.277 0 0.5 0.223 0.5 0.5v1c0 0.277-0.223 0.5-0.5 0.5h-1c-0.277 0-0.5-0.223-0.5-0.5v-1c0-0.277 0.223-0.5 0.5-0.5zm-2 2h1c0.277 0 0.5 0.223 0.5 0.5v1c0 0.277-0.223 0.5-0.5 0.5h-1c-0.277 0-0.5-0.223-0.5-0.5v-1c0-0.277 0.223-0.5 0.5-0.5z" fill="#444" filter="url(#filter7554)"/>
</svg>
